<svg xmlns="http://www.w3.org/2000/svg" viewBox="0 0 24 24">
  <title>crop_apple</title>
  <g id="4a91d6a5-0e30-4809-acde-b0608ad8fce0" data-name="Layer 2">
    <polygon points="9.47 19.85 8.9 20.89 9.6 20.71 9.68 21.2 10.13 21.02 10.43 21.49 11.02 20.38 9.47 19.85" style="fill: #524b44"/>
    <path d="M18.8,15c1.28-3.37.35-7.1-5.75-7.16,0,0-3.73-2-6.38-.31s-2.75,7.89-1,10.61,2.64,2.11,4.08,2,.7,1.29,2.85,1.21C15.25,21.26,17.85,17.5,18.8,15Z" style="fill: #a73c1a"/>
    <path d="M13.6,8.58a1.67,1.67,0,0,1-.31.05,2.23,2.23,0,0,1-.68,0l-.15,0h0a3.18,3.18,0,0,1-1.32-.68c-.09-.19.86-.21,1.46-.11h0l.37,0h0C12.44,7.53,9.1,6,6.67,7.53,4,9.24,3.92,15.42,5.65,18.14,7.08,20.39,8,20.36,9,20.23a15.58,15.58,0,0,1-.63-6.32c.25-5.15,3.91-5,3.91-5a4,4,0,0,0,2.39-.24C14.72,8.5,13.9,8.51,13.6,8.58Z" style="fill: #b75e3b"/>
    <path d="M12,4.46a2.22,2.22,0,0,0-.24-.29.56.56,0,0,0-.76.19.52.52,0,0,0,.19.73s1.66,1.73,1.42,3.43c0,.2.74.29.76.1a5.39,5.39,0,0,0-.79-3.26,7.22,7.22,0,0,0,2.07.17V5.22A5.78,5.78,0,0,1,12,4.46Z" style="fill: #524b44"/>
    <path d="M20.23,5.66c-1.23.47-2.75,2.18-4.42,1.71a2.09,2.09,0,0,1-1.57-1.71,1.43,1.43,0,0,1,1.45-1.4A18.11,18.11,0,0,1,20.23,5.66Z" style="fill: #4a7543"/>
  </g>
</svg>
