<svg id="5a9b67e8-9b39-4519-b501-430ec5f28a81" data-name="Layer 1" xmlns="http://www.w3.org/2000/svg" viewBox="0 0 24 24">
  <title>crop_rice</title>
  <path d="M17.19,18.06c-.27.1,1.3,6.89-.8.27S10.62,6.86,4.83,1.66C12,6.13,14.39,10.44,17.19,18.06Z" style="fill: #345c00"/>
  <rect x="17.21" y="15.28" width="0.37" height="6.1" style="fill: #345c00"/>
  <path d="M17.45,15.62h.08s0-5.33-2.65-8.09a5.55,5.55,0,0,0-4-1.67V6a5.33,5.33,0,0,1,3.92,1.62c2.13,2.18,2.52,6,2.59,7.42-.49-1.45-2.1-5.41-5.24-7.08l-.25-.13A7,7,0,0,0,6.4,7.69l0,.15A6.83,6.83,0,0,1,11.79,8l.25.12c2.32,1.23,3.79,3.76,4.59,5.54A10.93,10.93,0,0,0,12.35,8.8,5.49,5.49,0,0,0,8,8.52l0,.15a5.34,5.34,0,0,1,4.23.27c2.51,1.27,4.06,4.32,4.7,5.83-.86-1.48-2.75-4.23-5.36-5.18a5.49,5.49,0,0,0-4.36.23l.07.14a5.37,5.37,0,0,1,4.24-.23c2.41.89,4.2,3.34,5.11,4.85-1.21-1.44-3.73-4-6.79-4.46l-.28,0a7,7,0,0,0-5.23,1.6l.1.12a6.86,6.86,0,0,1,5.11-1.56l.27,0c3.4.55,6.12,3.65,7.09,4.89-1.2-1.19-4.23-3.83-7.62-4H9a7,7,0,0,0-5,2.2l.11.11A6.88,6.88,0,0,1,9,11.34h.28c4.29.18,8,4.45,8,4.49l.06-.05.07,0a.53.53,0,0,0-.06-.13Z" style="fill: #345c00"/>
  <path d="M7.91,8.89l-.4.24c-.08,0-.5.18-.54.11s.27-.38.35-.43l.39-.24c.08-.05.15,0,.24.07A.15.15,0,0,1,7.91,8.89Z" style="fill: #b58d2d"/>
  <path d="M9,8.5l-.46.07c-.09,0-.53,0-.54-.1s.39-.26.48-.27l.46-.08c.09,0,.15,0,.19.16A.15.15,0,0,1,9,8.5Z" style="fill: #b58d2d"/>
  <path d="M10.06,8.33l-.4.24c-.08,0-.5.18-.54.11s.27-.38.35-.43L9.86,8c.08,0,.15,0,.24.07A.15.15,0,0,1,10.06,8.33Z" style="fill: #b58d2d"/>
  <path d="M11,8.37l-.43.18c-.08,0-.52.1-.55,0s.32-.34.41-.38L10.89,8c.09,0,.15,0,.23.11S11.12,8.33,11,8.37Z" style="fill: #b58d2d"/>
  <path d="M11.93,8.76l-.46.05c-.1,0-.53-.06-.54-.14s.41-.23.5-.24l.46,0c.09,0,.15,0,.18.18S12,8.75,11.93,8.76Z" style="fill: #b58d2d"/>
  <path d="M12.9,9.42l-.43-.16c-.09,0-.45-.28-.42-.35s.46,0,.55,0l.43.16c.09,0,.12.09.1.23A.16.16,0,0,1,12.9,9.42Z" style="fill: #b58d2d"/>
  <path d="M13.87,10l-.34-.31c-.07-.07-.31-.44-.26-.49s.44.14.51.21l.34.31c.07.06.08.13,0,.25S13.94,10.07,13.87,10Z" style="fill: #b58d2d"/>
  <path d="M14.68,10.76l-.44-.15c-.08,0-.44-.29-.42-.36s.46,0,.55,0l.43.16c.09,0,.12.09.1.23A.14.14,0,0,1,14.68,10.76Z" style="fill: #b58d2d"/>
  <path d="M15.26,11.56l-.41-.22c-.08,0-.4-.35-.36-.42S15,11,15,11l.41.22c.08,0,.1.11.05.25S15.34,11.61,15.26,11.56Z" style="fill: #b58d2d"/>
  <path d="M15.51,12.51l-.32-.33c-.07-.07-.28-.45-.23-.51s.43.18.5.24l.32.34c.06.06.06.13,0,.25A.15.15,0,0,1,15.51,12.51Z" style="fill: #b58d2d"/>
  <path d="M4.44,12.07l-.37.46c-.07.1-.52.43-.6.37s.16-.58.23-.67l.37-.46c.08-.09.16-.11.32,0A.19.19,0,0,1,4.44,12.07Z" style="fill: #b58d2d"/>
  <path d="M5.55,11.15,5,11.43c-.1.06-.64.2-.69.11s.36-.47.46-.53l.52-.28c.1-.06.19,0,.3.11S5.65,11.09,5.55,11.15Z" style="fill: #b58d2d"/>
  <path d="M6.79,10.48l-.38.46c-.07.1-.52.43-.6.37s.16-.58.23-.67l.38-.46c.07-.09.15-.11.31,0A.19.19,0,0,1,6.79,10.48Z" style="fill: #b58d2d"/>
  <path d="M8,10.11l-.43.4c-.09.08-.59.34-.65.27s.24-.55.33-.63l.43-.4c.09-.07.17-.08.32,0A.19.19,0,0,1,8,10.11Z" style="fill: #b58d2d"/>
  <path d="M9.22,10.21l-.54.25c-.1,0-.65.15-.69.06s.38-.45.49-.5L9,9.77c.11,0,.19,0,.3.13A.2.2,0,0,1,9.22,10.21Z" style="fill: #b58d2d"/>
  <path d="M10.67,10.58h-.58c-.12,0-.66-.15-.66-.25s.54-.24.66-.24h.59c.11,0,.18.06.21.24S10.79,10.58,10.67,10.58Z" style="fill: #b58d2d"/>
  <path d="M12.08,10.88l-.54-.23c-.11-.05-.55-.39-.52-.48s.59,0,.7,0l.55.23c.11,0,.14.12.1.3A.19.19,0,0,1,12.08,10.88Z" style="fill: #b58d2d"/>
  <path d="M13.38,11.44h-.59c-.12,0-.66-.15-.66-.25s.54-.24.66-.23h.59c.12,0,.18.06.21.24A.19.19,0,0,1,13.38,11.44Z" style="fill: #b58d2d"/>
  <path d="M14.42,12.16l-.59-.1c-.11,0-.62-.25-.61-.35s.57-.14.69-.12l.58.09c.12,0,.17.09.17.27A.19.19,0,0,1,14.42,12.16Z" style="fill: #b58d2d"/>
  <path d="M15.12,13.19l-.53-.27c-.1-.05-.53-.42-.48-.51s.59,0,.69.08l.53.27c.11.05.14.13.09.31S15.23,13.24,15.12,13.19Z" style="fill: #b58d2d"/>
  <path d="M7.22,10.2l-.37.29c-.07,0-.47.23-.52.17s.22-.41.29-.47L7,9.9c.07-.06.14-.05.24,0A.16.16,0,0,1,7.22,10.2Z" style="fill: #ead085"/>
  <path d="M8.22,9.68l-.44.13c-.09,0-.53,0-.55,0s.36-.3.45-.32l.44-.13c.09,0,.15,0,.21.14A.14.14,0,0,1,8.22,9.68Z" style="fill: #ead085"/>
  <path d="M9.28,9.39l-.36.29c-.07.05-.47.23-.52.17s.22-.41.29-.47l.36-.29c.08-.06.14-.05.25.05S9.36,9.33,9.28,9.39Z" style="fill: #ead085"/>
  <path d="M10.26,9.31l-.4.23c-.08.05-.5.16-.54.09s.28-.37.36-.42l.4-.23c.08,0,.15,0,.24.09A.15.15,0,0,1,10.26,9.31Z" style="fill: #ead085"/>
  <path d="M11.19,9.6l-.45.1c-.09,0-.53,0-.54-.08s.37-.27.46-.29l.45-.1c.09,0,.15,0,.2.15S11.28,9.58,11.19,9.6Z" style="fill: #ead085"/>
  <path d="M12.24,10.14,11.79,10c-.09,0-.48-.23-.46-.3s.46-.09.55-.07l.45.11c.09,0,.13.08.12.22A.15.15,0,0,1,12.24,10.14Z" style="fill: #ead085"/>
  <path d="M13.27,10.61l-.38-.27c-.07-.05-.36-.39-.31-.46s.45.1.53.15l.37.27c.08.06.09.12,0,.26A.14.14,0,0,1,13.27,10.61Z" style="fill: #ead085"/>
  <path d="M14.16,11.27l-.45-.11c-.09,0-.48-.23-.46-.31s.45-.08.54-.06l.45.11c.09,0,.13.07.12.22A.15.15,0,0,1,14.16,11.27Z" style="fill: #ead085"/>
  <path d="M14.83,12l-.43-.17c-.08,0-.44-.3-.41-.37s.47,0,.55,0l.43.17c.08,0,.11.1.08.24A.14.14,0,0,1,14.83,12Z" style="fill: #ead085"/>
  <path d="M15.19,12.9l-.36-.29c-.07-.06-.33-.42-.28-.48s.44.13.52.19l.35.29c.08.06.09.13,0,.25A.15.15,0,0,1,15.19,12.9Z" style="fill: #ead085"/>
  <path d="M4.15,13.77l-.32.5c-.06.1-.47.48-.55.43s.09-.59.15-.69l.31-.5c.07-.1.15-.13.32-.06A.2.2,0,0,1,4.15,13.77Z" style="fill: #ead085"/>
  <path d="M5.14,12.72l-.48.34c-.1.07-.62.27-.68.19s.31-.51.4-.58l.48-.35c.1-.06.18-.05.31.08A.19.19,0,0,1,5.14,12.72Z" style="fill: #ead085"/>
  <path d="M6.29,11.91l-.32.5c-.06.1-.47.49-.55.43s.09-.59.15-.69l.32-.5c.06-.1.14-.12.31-.05A.19.19,0,0,1,6.29,11.91Z" style="fill: #ead085"/>
  <path d="M7.43,11.4l-.38.45c-.08.09-.54.41-.62.34s.18-.57.26-.66l.38-.44c.08-.09.17-.11.32,0A.19.19,0,0,1,7.43,11.4Z" style="fill: #ead085"/>
  <path d="M8.67,11.35l-.5.31c-.1.06-.63.23-.69.15s.34-.5.44-.56l.5-.31c.1-.06.18,0,.3.09A.19.19,0,0,1,8.67,11.35Z" style="fill: #ead085"/>
  <path d="M10.16,11.55l-.58.07c-.12,0-.67-.07-.69-.17s.52-.3.63-.31l.59-.06c.12,0,.19,0,.24.21S10.28,11.54,10.16,11.55Z" style="fill: #ead085"/>
  <path d="M11.6,11.68,11,11.52c-.11,0-.6-.32-.57-.42s.59-.08.7,0l.57.16c.11,0,.16.11.14.29A.18.18,0,0,1,11.6,11.68Z" style="fill: #ead085"/>
  <path d="M13,12.09l-.59.06c-.12,0-.67-.07-.68-.16s.51-.3.63-.31l.58-.07c.12,0,.19,0,.24.22A.19.19,0,0,1,13,12.09Z" style="fill: #ead085"/>
  <path d="M14.06,12.68l-.59,0c-.11,0-.65-.17-.65-.27s.56-.22.67-.21l.59,0c.12,0,.18.06.21.25S14.18,12.68,14.06,12.68Z" style="fill: #ead085"/>
  <path d="M14.89,13.62l-.56-.2c-.11,0-.58-.36-.54-.45s.59,0,.7,0l.55.2c.11,0,.16.11.13.3A.19.19,0,0,1,14.89,13.62Z" style="fill: #ead085"/>
  <path d="M10.64,6.18l-.45.11c-.09,0-.53,0-.54-.07s.37-.28.46-.3l.45-.1c.09,0,.15,0,.21.14A.15.15,0,0,1,10.64,6.18Z" style="fill: #ead085"/>
  <path d="M11.77,6.15l-.45-.07c-.09,0-.49-.2-.48-.27s.45-.12.54-.1l.46.07c.09,0,.13.07.13.22A.15.15,0,0,1,11.77,6.15Z" style="fill: #ead085"/>
  <path d="M12.86,6.35l-.45.1c-.09,0-.53,0-.55-.07s.38-.28.47-.3l.45-.1c.09,0,.15,0,.2.14A.15.15,0,0,1,12.86,6.35Z" style="fill: #ead085"/>
  <path d="M13.77,6.7l-.46,0c-.09,0-.52-.07-.52-.15s.41-.22.5-.22l.46,0c.09,0,.15,0,.18.18S13.87,6.69,13.77,6.7Z" style="fill: #ead085"/>
  <path d="M14.49,7.36,14,7.25c-.09,0-.48-.22-.46-.3s.46-.09.55-.07l.45.11c.09,0,.13.08.12.22A.15.15,0,0,1,14.49,7.36Z" style="fill: #ead085"/>
  <path d="M15.2,8.3,14.84,8c-.07-.06-.33-.41-.28-.47s.45.11.52.17l.36.29c.07.06.08.13,0,.26A.15.15,0,0,1,15.2,8.3Z" style="fill: #ead085"/>
  <path d="M15.93,9.17l-.23-.41c0-.08-.15-.51-.08-.55s.37.28.41.37l.22.4c.05.08,0,.15-.08.24A.14.14,0,0,1,15.93,9.17Z" style="fill: #ead085"/>
  <path d="M16.45,10.14l-.36-.29c-.07-.06-.33-.41-.29-.47s.45.12.52.18l.36.29c.07.05.09.12,0,.25A.15.15,0,0,1,16.45,10.14Z" style="fill: #ead085"/>
  <path d="M16.74,11.09l-.31-.35c-.06-.06-.27-.45-.21-.51s.42.19.49.26l.31.34c.06.07.06.14,0,.25A.15.15,0,0,1,16.74,11.09Z" style="fill: #ead085"/>
  <path d="M16.67,12.06l-.19-.42c0-.08-.12-.51-.05-.55s.35.31.38.39l.2.42c0,.08,0,.15-.1.23S16.71,12.15,16.67,12.06Z" style="fill: #ead085"/>
  <path d="M6.34,8.08l-.5.32c-.1.06-.64.23-.69.15s.34-.5.44-.56l.5-.32c.09-.06.18,0,.3.09A.19.19,0,0,1,6.34,8.08Z" style="fill: #ead085"/>
  <path d="M7.68,7.56l-.58.1c-.11,0-.67,0-.69-.12s.5-.33.61-.35l.58-.1c.12,0,.19,0,.25.2S7.8,7.54,7.68,7.56Z" style="fill: #ead085"/>
  <path d="M9.07,7.33l-.5.32c-.1.06-.63.23-.69.15s.34-.5.44-.56l.5-.32c.1-.06.18,0,.3.09A.19.19,0,0,1,9.07,7.33Z" style="fill: #ead085"/>
  <path d="M10.32,7.37l-.54.23c-.11.05-.66.14-.7.05s.4-.44.51-.49l.54-.24c.11,0,.19,0,.29.14A.19.19,0,0,1,10.32,7.37Z" style="fill: #ead085"/>
  <path d="M11.46,7.85l-.59.07c-.11,0-.67-.07-.68-.17s.52-.3.63-.31l.59-.07c.11,0,.19,0,.24.22S11.58,7.84,11.46,7.85Z" style="fill: #ead085"/>
  <path d="M12.72,8.68l-.56-.2c-.11,0-.57-.35-.54-.44s.59,0,.7,0l.56.19c.11,0,.15.12.12.3A.19.19,0,0,1,12.72,8.68Z" style="fill: #ead085"/>
  <path d="M14,9.42,13.52,9c-.09-.08-.4-.55-.34-.62s.56.18.65.26l.44.4c.09.07.1.16,0,.32A.19.19,0,0,1,14,9.42Z" style="fill: #ead085"/>
  <path d="M15,10.36l-.56-.19c-.11,0-.57-.35-.54-.45s.59,0,.7,0l.56.2c.11,0,.15.11.12.3S15.11,10.4,15,10.36Z" style="fill: #ead085"/>
  <path d="M15.75,11.38l-.52-.28c-.1-.06-.51-.44-.47-.53s.59,0,.7.1L16,11c.1.06.13.14.07.31S15.86,11.43,15.75,11.38Z" style="fill: #ead085"/>
  <path d="M16.09,12.58l-.42-.42c-.08-.09-.36-.57-.29-.64s.55.21.63.3l.42.42c.08.08.08.17,0,.32A.19.19,0,0,1,16.09,12.58Z" style="fill: #ead085"/>
  <path d="M17.06,18.88c.33,3.11.62,1.38.69,0s.37-9.24,2.63-13.95C17.84,9.56,16.72,15.77,17.06,18.88Z" style="fill: #69994a"/>
</svg>
