<?xml version="1.0" encoding="UTF-8"?>
<svg version="1.1" xmlns="http://www.w3.org/2000/svg" width="1920" height="1920">
<path d="M0 0 C633.6 0 1267.2 0 1920 0 C1920 633.6 1920 1267.2 1920 1920 C1286.4 1920 652.8 1920 0 1920 C0 1286.4 0 652.8 0 0 Z " fill="#FEFEFE" transform="translate(0,0)"/>
<path d="M0 0 C32.46640171 -0.43257479 64.43254232 1.35767206 96.66659546 5.24981689 C100.34415699 5.69299039 104.02256059 6.11345411 107.70654297 6.5 C114.70239043 7.23660857 121.61102584 7.9683304 128.49072266 9.47753906 C131.65058334 10.13545907 134.82428743 10.64091433 138.01171875 11.1484375 C150.86468231 13.19755713 163.51655101 15.22656309 176 19 C177.62800558 19.46022924 179.25699398 19.91698991 180.88671875 20.37109375 C192.67247211 23.66567347 204.36036783 27.22342585 216 31 C216.83354004 31.26876953 217.66708008 31.53753906 218.52587891 31.81445312 C221.01924546 32.62033206 223.51003814 33.4336685 226 34.25 C226.76014404 34.49621094 227.52028809 34.74242187 228.3034668 34.99609375 C231.53624944 36.0671541 234.14850127 37.09900084 237 39 C238.50834207 39.47879482 240.03152272 39.91193933 241.5625 40.3125 C246.25035874 41.65872183 250.36995443 43.54998401 254.68359375 45.8046875 C256.68262875 46.83623001 258.67568953 47.75880442 260.75 48.625 C263.90979139 49.96183482 266.93205336 51.46602668 270 53 C272.34228385 54.05998269 274.69258146 55.09980615 277.046875 56.1328125 C278.37879485 56.72418491 279.69654864 57.34827432 281 58 C281 58.66 281 59.32 281 60 C282.28583984 60.38671875 282.28583984 60.38671875 283.59765625 60.78125 C299.6441567 66.52925016 314.61533742 78.75627157 328 89 C330.1838879 90.65065854 332.37292178 92.2944011 334.5625 93.9375 C335.53316406 94.66839844 336.50382812 95.39929688 337.50390625 96.15234375 C339.30139282 97.48287762 341.13924116 98.7594941 343 100 C343 100.66 343 101.32 343 102 C343.56468994 102.24733887 344.12937988 102.49467773 344.71118164 102.74951172 C360.35109619 111.2943269 375.26095044 129.91426438 386 144 C387.24330078 145.51787109 387.24330078 145.51787109 388.51171875 147.06640625 C396.5022246 156.84557276 403.27449223 167.32620441 410 178 C410.53818359 178.84336914 411.07636719 179.68673828 411.63085938 180.55566406 C413.18212681 182.98837639 414.7185608 185.42976827 416.25 187.875 C416.71599609 188.60557617 417.18199219 189.33615234 417.66210938 190.08886719 C420.11922627 194.06820703 421.61130979 197.23107018 422 202 C422.66 202 423.32 202 424 202 C426.88570047 207.55852139 429.53265068 213.11708771 431.78515625 218.9609375 C432.73033921 221.32541449 433.71639526 223.64897512 434.74609375 225.9765625 C442.92155754 244.58012161 448.82661581 263.69861892 452.9921875 283.578125 C453.70285484 286.89935135 454.70044358 289.85762998 456 293 C467.77453723 343.33291188 471.89849777 402.14034373 461 453 C460.67 453 460.34 453 460 453 C459.88519287 452.44989258 459.77038574 451.89978516 459.65209961 451.33300781 C457.12001061 439.2749699 454.40172549 427.27203135 451.4375 415.3125 C451.15704834 414.1687793 450.87659668 413.02505859 450.58764648 411.84667969 C445.21225815 390.3950284 436.5640741 369.87890739 426.96142578 349.99902344 C426.29442079 348.61216796 425.63441662 347.22193217 424.97998047 345.82910156 C407.60397355 308.90410271 382.89849378 273.73483297 354.8515625 244.0625 C352.76877747 241.85542383 350.77657058 239.58835379 348.80078125 237.28515625 C344.29028551 232.10338247 339.42859488 227.28284395 334.5625 222.4375 C333.65951172 221.53064453 332.75652344 220.62378906 331.82617188 219.68945312 C327.26879061 215.13867198 322.66002541 210.72037584 317.77172852 206.52661133 C315.17933701 204.29287506 312.69150433 201.95740123 310.1875 199.625 C305.49092453 195.28728916 300.66260488 191.16516936 295.6796875 187.15625 C293.96409292 185.77577157 292.25973897 184.38113226 290.5703125 182.96875 C262.70228969 159.70198952 232.19393114 139.67329115 200.76806641 121.60302734 C198.25357329 120.14684796 195.75405656 118.66947503 193.26171875 117.17578125 C184.04523725 111.65374848 174.67477192 106.67268303 165 102 C164.34 101.67 163.68 101.34 163 101 C163 101.66 163 102.32 163 103 C163.845625 103.2371875 164.69125 103.474375 165.5625 103.71875 C169.43516535 105.16219799 172.62348443 107.17029334 176 109.5 C176.64936523 109.94069824 177.29873047 110.38139648 177.96777344 110.83544922 C184.72509235 115.44449701 191.37752669 120.20000577 198 125 C199.00289062 125.72445312 200.00578125 126.44890625 201.0390625 127.1953125 C208.89294645 132.88559206 216.63779621 138.65966671 224.18359375 144.75390625 C226.18250588 146.34804561 228.1894409 147.91604211 230.22265625 149.46484375 C238.77306881 156.00949848 246.62191976 163.10019178 254.42285156 170.515625 C256.8993232 172.84642184 259.46278206 175.06958187 262.03515625 177.29296875 C274.39424635 188.03038898 274.39424635 188.03038898 277.75 192.25 C279.57794162 194.48415086 281.17882644 196.06581737 283.375 197.875 C287.38219984 201.20419206 290.65846482 205.0179396 294 209 C295.03993498 210.2306321 296.08151797 211.45987408 297.125 212.6875 C297.56070312 213.20699219 297.99640625 213.72648438 298.4453125 214.26171875 C300.53809655 216.60164062 302.77870406 218.78201449 305 221 C313.68584179 230.22427896 321.56592846 239.87093025 328.9453125 250.1640625 C330.56392467 252.39811655 332.20197349 254.61131109 333.859375 256.81640625 C343.88874502 270.16171124 353.321874 283.73420941 362 298 C362.53125488 298.87172852 363.06250977 299.74345703 363.60986328 300.64160156 C373.99091529 317.75322575 383.3216456 335.28144985 392 353.3125 C392.45713379 354.26116943 392.91426758 355.20983887 393.38525391 356.18725586 C395.85855667 361.38842517 398.05223042 366.58061758 400 372 C400.74770071 373.93838848 401.49762226 375.87592209 402.25 377.8125 C403.16883145 380.20753212 404.08542441 382.60334601 405 385 C405.4029126 386.0509082 405.4029126 386.0509082 405.81396484 387.12304688 C410.1265566 398.4161688 413.90384218 409.77980871 417.24414062 421.39697266 C418.03435131 424.11829898 418.8513103 426.83065183 419.671875 429.54296875 C424.95886419 447.21750561 424.95886419 447.21750561 425 456 C398.07359669 457.20366372 367.8660745 450.10448884 343 440 C341.40478516 439.36964844 341.40478516 439.36964844 339.77734375 438.7265625 C312.76503057 427.78221884 288.07780564 413.75987651 265 396 C264.23429687 395.42894531 263.46859375 394.85789062 262.6796875 394.26953125 C256.61423643 389.69326799 251.07990134 384.58857538 245.53076172 379.41308594 C244.07927246 378.07317847 242.60466769 376.75843901 241.12890625 375.4453125 C223.94915214 360.10707885 208.53738456 342.61071701 195 324 C194.34644531 323.12085938 193.69289063 322.24171875 193.01953125 321.3359375 C188.71207275 315.50668229 184.64823035 309.54046393 180.65405273 303.49487305 C178.20210572 299.78629725 175.70113115 296.12423591 173.125 292.5 C170.50965937 288.78378343 168.15237038 285.00159001 166 281 C165.40703125 279.9275 164.8140625 278.855 164.203125 277.75 C163.55154454 276.56279555 162.90050792 275.37529247 162.25 274.1875 C161.63640625 273.06730469 161.0228125 271.94710938 160.390625 270.79296875 C159 268 159 268 159 266 C158.34 266 157.68 266 157 266 C156.443125 264.62714844 156.443125 264.62714844 155.875 263.2265625 C153.54617561 257.79537228 150.74678696 252.60318388 148 247.375 C147.46632813 246.35148438 146.93265625 245.32796875 146.3828125 244.2734375 C143.49012907 238.72896586 143.49012907 238.72896586 140.37475586 233.30859375 C139.04362306 231.07325513 138.28535099 229.11232576 137.5625 226.625 C136.4561906 223.12264226 135.01130297 220.26617116 133.09375 217.12109375 C131.04971288 213.15712177 129.79387186 208.86514029 128.34375 204.65625 C127.10275849 201.27959868 125.6924945 198.11004184 124.125 194.875 C118.87399447 183.81668086 115.11273254 172.04119214 111.72290039 160.29418945 C110.97660085 157.9257407 110.08589711 155.66396212 109.125 153.375 C107.41946135 149.23297756 106.04543936 145.03401263 104.75 140.75 C102.68303267 133.97429992 100.39751542 127.29076823 98 120.625 C97.67999023 119.72233398 97.35998047 118.81966797 97.03027344 117.88964844 C95.06350364 112.47755839 92.793545 107.36273928 90.12402344 102.25952148 C89.01155962 100.02323724 88.11042911 97.78078498 87.25 95.4375 C78.99309869 74.43482642 65.16186714 52.76403657 49 37 C47.74123047 35.70642578 47.74123047 35.70642578 46.45703125 34.38671875 C32.90131566 20.55067817 17.22333456 9.81626412 0 1 C0 0.67 0 0.34 0 0 Z " fill="#8BC43F" transform="translate(477,384)"/>
<path d="M0 0 C-2.92503733 2.40058516 -5.80888058 4.60355069 -9.07421875 6.515625 C-9.81913574 6.95777344 -10.56405273 7.39992188 -11.33154297 7.85546875 C-12.10900879 8.31566406 -12.88647461 8.77585937 -13.6875 9.25 C-25.31677899 16.26337841 -35.14739797 24.70887597 -45 34 C-46.19302734 35.11181641 -46.19302734 35.11181641 -47.41015625 36.24609375 C-56.6039539 45.08316557 -63.69533604 55.28662237 -70.5 66 C-71.27500854 67.21985596 -71.27500854 67.21985596 -72.06567383 68.46435547 C-74.40514596 72.21265515 -76.57382802 75.78939701 -78 80 C-78.66 80 -79.32 80 -80 80 C-80.3403125 81.175625 -80.3403125 81.175625 -80.6875 82.375 C-82.10387945 86.28690515 -83.88694646 89.85732039 -85.7734375 93.55859375 C-87.32782042 96.65250879 -88.68464639 99.7973999 -90 103 C-90.27199219 103.65484375 -90.54398438 104.3096875 -90.82421875 104.984375 C-97.97974307 122.49578473 -104.0687147 140.42495017 -109.625 158.5 C-111.17112508 163.51043419 -112.84533817 168.41029767 -114.8671875 173.25 C-116.0179067 176.04347007 -117.09292102 178.86151357 -118.1652832 181.68579102 C-122.06450246 191.91226047 -126.36282839 201.95909964 -130.73632812 211.98974609 C-133.74114915 218.91556396 -136.52108461 225.86826782 -139 233 C-139.66 233 -140.32 233 -141 233 C-141.12004395 233.73428223 -141.24008789 234.46856445 -141.36376953 235.22509766 C-141.99053508 237.95871901 -142.84519168 239.94577695 -144.1796875 242.3984375 C-144.61410156 243.20796875 -145.04851562 244.0175 -145.49609375 244.8515625 C-145.95113281 245.68429687 -146.40617187 246.51703125 -146.875 247.375 C-149.83804709 252.83998599 -152.63592527 258.24815462 -155 264 C-155.65288627 265.34013497 -156.31225595 266.67741528 -157 268 C-157.66 268 -158.32 268 -159 268 C-159.13535156 268.53367187 -159.27070312 269.06734375 -159.41015625 269.6171875 C-161.06864647 275.35735125 -163.58196722 279.60773695 -167.109375 284.40234375 C-169.01645751 287.02261207 -170.76964903 289.69777763 -172.5 292.4375 C-173.08136719 293.35789062 -173.66273438 294.27828125 -174.26171875 295.2265625 C-175.393012 297.03154724 -176.52080545 298.83873182 -177.64453125 300.6484375 C-181.80653077 307.29594025 -186.2700513 313.67856408 -190.86328125 320.03125 C-192.27737149 321.99598232 -193.65723313 323.9858497 -195 326 C-195.66 326 -196.32 326 -197 326 C-197.25652344 326.73992187 -197.51304687 327.47984375 -197.77734375 328.2421875 C-199.05574541 331.12573885 -200.41109344 332.83885889 -202.5625 335.125 C-205.70020621 338.54173998 -208.70095901 342.02313563 -211.625 345.625 C-216.54672879 351.67991033 -221.46450387 357.49678082 -227 363 C-227.89976562 363.92296875 -228.79953125 364.8459375 -229.7265625 365.796875 C-235.33981515 371.53458788 -241.05879062 376.85596036 -247.35546875 381.85546875 C-249.97814369 383.98227605 -252.45722581 386.20960326 -254.9375 388.5 C-294.16469449 424 -294.16469449 424 -310 424 C-310 424.66 -310 425.32 -310 426 C-315.82414911 429.08337306 -321.74653093 431.46666149 -327.9140625 433.78125 C-330.34872212 434.74278646 -332.58077191 435.75771055 -334.875 437 C-340.89301968 440.1492603 -347.54398507 441.95835425 -354 444 C-355.28390625 444.41765625 -355.28390625 444.41765625 -356.59375 444.84375 C-364.60287493 447.36717292 -372.81024673 449.17132906 -381 451 C-382.25296875 451.28101563 -383.5059375 451.56203125 -384.796875 451.8515625 C-397.6783305 454.58818073 -410.81008897 456.425481 -424 456 C-423.67 452.37 -423.34 448.74 -423 445 C-422.34 445 -421.68 445 -421 445 C-421.00902344 444.40058594 -421.01804687 443.80117187 -421.02734375 443.18359375 C-420.24504547 419.27247686 -407.61171513 393.77969497 -398.73779297 371.828125 C-398.09316312 370.23084231 -397.4542956 368.6312365 -396.81640625 367.03125 C-394.24490308 360.69592039 -391.41187569 354.49686632 -388.5 348.3125 C-388.13221436 347.52842773 -387.76442871 346.74435547 -387.38549805 345.93652344 C-385.15854542 341.25120812 -382.76665641 336.69970352 -380.21875 332.18139648 C-378.69677864 329.45727507 -377.25708594 326.69471703 -375.81787109 323.92626953 C-371.20871778 315.07256442 -366.25964013 306.48158002 -361 298 C-360.43925781 297.09378906 -359.87851563 296.18757813 -359.30078125 295.25390625 C-357.5600493 292.48475155 -355.78665707 289.73977531 -354 287 C-353.58943359 286.36787598 -353.17886719 285.73575195 -352.75585938 285.08447266 C-345.37355959 273.74963254 -337.54853577 262.81243351 -329.44140625 251.98632812 C-328.12925839 250.17812437 -326.91447302 248.33936704 -325.71875 246.453125 C-325.1515625 245.64359375 -324.584375 244.8340625 -324 244 C-323.34 244 -322.68 244 -322 244 C-321.75378906 243.44570313 -321.50757813 242.89140625 -321.25390625 242.3203125 C-317.08801348 234.61146419 -310.21931979 228.01768506 -304.3359375 221.58203125 C-302.43364457 219.47932953 -300.56602309 217.35550102 -298.70703125 215.21484375 C-295.00127071 210.97097424 -291.179301 206.84710311 -287.3125 202.75 C-286.61769531 202.01346191 -285.92289063 201.27692383 -285.20703125 200.51806641 C-269.763976 184.2056296 -269.763976 184.2056296 -261.25 176.96875 C-258.76751567 174.79657621 -256.36753531 172.54914033 -253.96411133 170.2902832 C-248.64811167 165.29608042 -243.29896266 160.48764902 -237.53515625 156.0078125 C-235.13620189 154.10787022 -232.80942092 152.13936355 -230.49169922 150.14160156 C-222.6158714 143.36234778 -214.38198048 137.13687521 -206 131 C-205.26555664 130.46052734 -204.53111328 129.92105469 -203.77441406 129.36523438 C-176.82753541 109.60496403 -176.82753541 109.60496403 -164 103 C-168.31138153 104.32521808 -172.14090084 105.99433989 -176.11328125 108.125 C-177.27029541 108.7439917 -178.42730957 109.3629834 -179.61938477 110.00073242 C-180.85067767 110.66668462 -182.08171094 111.33311707 -183.3125 112 C-183.93937714 112.33802643 -184.56625427 112.67605286 -185.21212769 113.02432251 C-204.55076684 123.45471549 -223.74212645 134.48620626 -241.62109375 147.296875 C-243.97980499 148.98554183 -246.36307809 150.6355619 -248.75341797 152.27905273 C-258.38843628 158.90679438 -267.80956677 165.76865598 -277 173 C-278.05946683 173.8208665 -279.11939556 174.64113705 -280.1796875 175.4609375 C-291.2889968 184.07882082 -302.0041285 193.12411884 -312.328125 202.671875 C-314 204 -314 204 -316 204 C-316 204.66 -316 205.32 -316 206 C-317.28417969 207.26513672 -317.28417969 207.26513672 -319.171875 208.8046875 C-324.91224088 213.68779169 -330.17656615 219.0268276 -335.4921875 224.36181641 C-337.25668446 226.13170488 -339.02650529 227.89614422 -340.796875 229.66015625 C-341.93261268 230.79655426 -343.06804037 231.93326219 -344.203125 233.0703125 C-344.72610168 233.59126495 -345.24907837 234.11221741 -345.78790283 234.6489563 C-348.09303002 236.96877988 -350.22513513 239.28886281 -352.23730469 241.87060547 C-352.81899414 242.57330566 -353.40068359 243.27600586 -354 244 C-354.66 244 -355.32 244 -356 244 C-356.24363281 244.55171875 -356.48726562 245.1034375 -356.73828125 245.671875 C-358.26847973 248.49539913 -360.13632625 250.77870632 -362.1875 253.25 C-362.99960938 254.23097656 -363.81171875 255.21195313 -364.6484375 256.22265625 C-366.50349689 258.41359849 -368.38761732 260.55875043 -370.3125 262.6875 C-378.63944283 272.10140973 -385.93443025 282.62343456 -393 293 C-394.04800781 294.49853516 -394.04800781 294.49853516 -395.1171875 296.02734375 C-406.40345841 312.36497836 -416.52730439 329.85062445 -424.97509766 347.82617188 C-425.72410846 349.41483129 -426.48298015 350.9988521 -427.24755859 352.58007812 C-434.70888154 368.02321904 -440.7542962 383.67597635 -446 400 C-446.24943359 400.7626416 -446.49886719 401.5252832 -446.75585938 402.31103516 C-449.98708364 412.26765947 -452.36023345 422.4408758 -454.75 432.625 C-454.90511047 433.28487915 -455.06022095 433.9447583 -455.22003174 434.62463379 C-456.72800455 441.06992692 -458.12888836 447.43339831 -459 454 C-469.56965881 443.43034119 -465.23998803 404.96152862 -465.25 390 C-465.12765886 351.72338274 -460.23650392 313.98007113 -450.74462891 276.90917969 C-450.12491046 274.48801082 -449.52904391 272.06373096 -448.94921875 269.6328125 C-443.9703436 249.58571166 -436.92029227 227.64797233 -426 210 C-425.28856912 208.01548229 -424.61008664 206.01797888 -424 204 C-423.34 204 -422.68 204 -422 204 C-422 202.68 -422 201.36 -422 200 C-421.34 200 -420.68 200 -420 200 C-419.90460937 199.30390625 -419.80921875 198.6078125 -419.7109375 197.890625 C-414.59687422 177.09718089 -394.21219271 155.24645025 -380.7421875 139.13671875 C-378.8751405 136.91658577 -378.8751405 136.91658577 -377 134 C-376.34 134 -375.68 134 -375 134 C-374.7743335 133.44981201 -374.54866699 132.89962402 -374.31616211 132.33276367 C-372.59714686 129.28598373 -370.41241621 127.15281754 -367.94140625 124.67578125 C-367.43761948 124.17008102 -366.9338327 123.6643808 -366.41477966 123.14335632 C-365.34546588 122.07268344 -364.27362978 121.00452456 -363.19946289 119.9387207 C-361.59228282 118.34208737 -359.99585142 116.73528653 -358.40039062 115.12695312 C-351.92378038 108.64142539 -345.21456311 102.67028945 -338 97 C-336.7728712 96.01111899 -335.54622854 95.02163407 -334.3203125 94.03125 C-323.74065259 85.6116913 -312.70603278 78.02149589 -301.3125 70.75 C-300.54075439 70.25443604 -299.76900879 69.75887207 -298.97387695 69.24829102 C-294.18345375 66.22278736 -289.30770734 63.57064638 -284.21655273 61.08544922 C-281.72268114 59.86419654 -279.29652687 58.54601762 -276.875 57.1875 C-266.57181802 51.54112343 -256.22963204 46.19588343 -245.16015625 42.203125 C-242.62674642 41.23861298 -240.20402051 40.19641562 -237.7421875 39.0703125 C-232.9480799 36.91664877 -228.05930801 35.24125496 -223.0625 33.625 C-221.19914411 33.01455069 -219.33586408 32.40386979 -217.47265625 31.79296875 C-216.54984863 31.49181152 -215.62704102 31.1906543 -214.67626953 30.88037109 C-212.23563636 30.07751366 -209.80209821 29.25725984 -207.37109375 28.42578125 C-199.27920031 25.6629802 -191.14610013 23.08312123 -182.9375 20.6875 C-181.65262695 20.30549438 -181.65262695 20.30549438 -180.34179688 19.91577148 C-175.54440082 18.54180999 -170.94894774 17.66618848 -165.98120117 17.20874023 C-163.46793441 16.94394133 -161.12001933 16.36467101 -158.6875 15.6875 C-143.33588698 11.66174973 -127.63709344 9.15165137 -111.9375 6.9375 C-111.04112823 6.80993317 -110.14475647 6.68236633 -109.22122192 6.55093384 C-72.90169262 1.41719532 -36.65668522 -0.24678245 0 0 Z " fill="#8BC43F" transform="translate(1442,618)"/>
<path d="M0 0 C3.7416352 0.02076973 7.48329888 0.029659 11.22497559 0.03967285 C18.51541601 0.06087253 25.80571857 0.09482848 33.09606934 0.1373291 C33.09606934 0.7973291 33.09606934 1.4573291 33.09606934 2.1373291 C31.87919434 2.6117041 30.66231934 3.0860791 29.40856934 3.5748291 C0.51344923 16.40188874 -16.81919089 45.85286236 -27.90393066 74.1373291 C-29.25643665 77.78567802 -30.53154726 81.45810982 -31.76330566 85.14904785 C-32.87964221 88.07369669 -34.27091514 90.47675028 -35.90393066 93.1373291 C-36.66545658 94.8944896 -37.39281575 96.66672172 -38.09143066 98.4498291 C-50.93778578 129.70802257 -70.72765995 161.39845802 -94.90393066 185.1373291 C-95.62580566 185.9004541 -96.34768066 186.6635791 -97.09143066 187.4498291 C-98.90393066 189.1373291 -98.90393066 189.1373291 -100.90393066 189.1373291 C-101.13209473 189.70967285 -101.36025879 190.2820166 -101.59533691 190.8717041 C-114.49603906 213.20724811 -154.80547055 228.12449154 -178.69592285 234.56896973 C-189.07368408 237.24029084 -199.15216991 238.63441393 -209.90393066 238.1373291 C-210.12564941 239.29619629 -210.34736816 240.45506348 -210.57580566 241.64904785 C-212.02852907 248.17738294 -214.25662924 254.45545022 -216.41311646 260.77612305 C-217.67088001 264.46666815 -218.91104685 268.1630982 -220.15002441 271.85998535 C-220.39290695 272.58446869 -220.63578949 273.30895203 -220.8860321 274.0553894 C-223.51641927 281.92824874 -225.94142651 289.85412726 -228.2388916 297.8302002 C-228.93453642 300.24350545 -229.64161025 302.65329522 -230.34924316 305.06311035 C-236.05108414 324.61415195 -241.01422429 344.36993794 -245.90393066 364.1373291 C-246.3892627 365.95684082 -246.3892627 365.95684082 -246.88439941 367.81311035 C-247.98750811 372.20070272 -248.67232627 376.63814107 -249.39025879 381.10217285 C-250.00356535 384.72604506 -250.76471989 388.30319412 -251.55236816 391.89245605 C-257.85947128 420.67117371 -261.98504871 449.95151472 -265.90393066 479.1373291 C-265.99689423 479.82317078 -266.08985779 480.50901245 -266.18563843 481.21563721 C-267.30858819 489.55897076 -268.20162906 497.84034649 -268.46643066 506.2623291 C-268.52682514 508.015054 -268.59053561 509.76766832 -268.65783691 511.5201416 C-268.68176514 512.26666992 -268.70569336 513.01319824 -268.73034668 513.78234863 C-268.90393066 516.1373291 -268.90393066 516.1373291 -269.38201904 518.86956787 C-270.34299535 524.88637413 -270.58482242 530.97392094 -270.94689941 537.0513916 C-270.99114737 537.79146076 -271.03539532 538.53152992 -271.08098412 539.29402542 C-272.12231341 557.16802315 -272.26045578 575.02919419 -272.2217865 592.92910767 C-272.21633293 595.55947004 -272.21397503 598.18982339 -272.21191406 600.82019043 C-272.18052882 626.54842948 -271.63862342 652.10648332 -269.13500977 677.72979736 C-268.89508709 680.22946715 -268.67041071 682.73011975 -268.4498291 685.23156738 C-267.4205993 696.8850561 -266.23831866 708.51486608 -264.90393066 720.1373291 C-264.82461304 720.83791443 -264.74529541 721.53849976 -264.66357422 722.26031494 C-261.35394944 751.2944356 -255.14763773 779.85329772 -249.27307129 808.45178223 C-247.87328259 815.27124062 -246.50231176 822.0962247 -245.14463806 828.92417908 C-243.12130763 839.09624189 -240.74829063 848.89568736 -237.37927246 858.70544434 C-235.16876855 865.19116405 -233.23084998 871.73911767 -231.34143066 878.3248291 C-229.1156249 886.07334728 -226.77312088 893.73519222 -224.14831543 901.35852051 C-223.12416929 904.46853304 -222.19658547 907.58329226 -221.31851196 910.73680115 C-218.22010785 921.77353029 -214.16895738 932.39441021 -210.02893066 943.0748291 C-209.33952817 944.8682182 -208.65072421 946.66183751 -207.96252441 948.45568848 C-206.27734963 952.84350442 -204.58087151 957.22684957 -202.88128662 961.60910034 C-201.92604864 964.08011423 -200.97908259 966.55414641 -200.03430176 969.0291748 C-196.73267049 977.65067135 -193.23196306 986.1011275 -189.27893066 994.4498291 C-185.87688536 1001.73160217 -182.6309677 1008.95067142 -180.00158691 1016.5513916 C-178.94003836 1019.052264 -177.59908315 1021.07030299 -176.05700684 1023.2935791 C-173.48043016 1027.41348319 -171.57627397 1031.92588453 -169.52893066 1036.3248291 C-166.26257887 1043.32349531 -162.87248064 1050.15616704 -159.01867676 1056.85339355 C-157.90393066 1059.1373291 -157.90393066 1059.1373291 -157.90393066 1062.1373291 C-157.24393066 1062.1373291 -156.58393066 1062.1373291 -155.90393066 1062.1373291 C-155.40506348 1063.12088379 -154.90619629 1064.10443848 -154.39221191 1065.11779785 C-146.40375636 1080.64489572 -137.29872321 1095.54730028 -127.29455566 1109.85998535 C-125.98290749 1112.00799346 -125.3359539 1113.67593359 -124.90393066 1116.1373291 C-137.53803504 1116.88869654 -150.69176812 1114.85351832 -162.43127441 1110.11779785 C-165.85804175 1108.75900069 -169.36668257 1107.76479696 -172.90783691 1106.75061035 C-174.90393066 1106.1373291 -174.90393066 1106.1373291 -176.90393066 1105.1373291 C-176.90393066 1104.4773291 -176.90393066 1103.8173291 -176.90393066 1103.1373291 C-178.10018066 1102.8485791 -179.29643066 1102.5598291 -180.52893066 1102.2623291 C-191.71456406 1098.52791291 -201.55899046 1089.15437381 -209.90393066 1081.1373291 C-210.48787598 1080.59979004 -211.07182129 1080.06225098 -211.67346191 1079.50842285 C-212.90393066 1078.1373291 -212.90393066 1078.1373291 -212.90393066 1076.1373291 C-213.56393066 1076.1373291 -214.22393066 1076.1373291 -214.90393066 1076.1373291 C-216.16564941 1074.7388916 -216.16564941 1074.7388916 -217.59143066 1072.7623291 C-218.3861377 1071.66404785 -218.3861377 1071.66404785 -219.19689941 1070.5435791 C-219.76021973 1069.7495166 -220.32354004 1068.9554541 -220.90393066 1068.1373291 C-221.47756348 1067.3432666 -222.05119629 1066.5492041 -222.64221191 1065.7310791 C-228.50568482 1057.5144164 -233.64127386 1049.60216536 -236.90393066 1040.0045166 C-238.90210617 1034.27537276 -241.29185309 1028.65772073 -243.81799316 1023.14123535 C-245.56609959 1019.31835615 -246.54227855 1015.65655338 -247.27893066 1011.5435791 C-247.96187248 1008.91425312 -249.02690565 1006.54946993 -250.10595703 1004.06298828 C-251.35974982 1001.03735248 -252.35162165 997.94062299 -253.35705566 994.8248291 C-253.57809967 994.14236618 -253.79914368 993.45990326 -254.02688599 992.75675964 C-254.7397408 990.55149871 -255.44728996 988.34458848 -256.15393066 986.1373291 C-256.39726135 985.3798941 -256.64059204 984.62245911 -256.89129639 983.84207153 C-258.57190156 978.61023437 -260.24043742 973.37462858 -261.90393066 968.1373291 C-262.27163574 966.9828125 -262.63934082 965.8282959 -263.01818848 964.63879395 C-266.70248468 953.0155865 -269.96749738 941.37734346 -272.66564941 929.48498535 C-273.63658493 925.21603066 -274.69400122 920.97129971 -275.76721191 916.72717285 C-281.52948399 893.85320424 -286.85095017 870.80428629 -290.37658691 847.47424316 C-291.01829873 843.41363337 -291.72542665 839.36618634 -292.43518066 835.3170166 C-292.85052401 832.92216551 -293.2649071 830.52715017 -293.6789856 828.13208008 C-293.9475874 826.58879726 -294.21922355 825.0460385 -294.49435425 823.50390625 C-296.36070239 813.01383759 -297.35146759 802.71818888 -297.80813599 792.07666016 C-298.01269564 787.93541864 -298.44581176 783.81932016 -298.90393066 779.6998291 C-298.98643066 778.89996582 -299.06893066 778.10010254 -299.15393066 777.27600098 C-299.49768055 774.08288682 -299.88516371 771.19362997 -300.90393066 768.1373291 C-301.10559594 766.14483136 -301.2583105 764.14724817 -301.38464355 762.14855957 C-301.46462082 760.90366257 -301.54459808 759.65876556 -301.6269989 758.37614441 C-301.71054599 757.00228978 -301.79373109 755.6284131 -301.87658691 754.2545166 C-301.96508494 752.82338793 -302.05361194 751.39226106 -302.14216614 749.96113586 C-302.4267282 745.31209484 -302.69823999 740.66234013 -302.96643066 736.0123291 C-303.01225533 735.22099705 -303.05807999 734.42966499 -303.10529327 733.61435318 C-306.25800861 678.91650439 -304.65230345 625.01412397 -299.80627441 570.4654541 C-299.73027512 569.59347382 -299.65427582 568.72149353 -299.57597351 567.8230896 C-299.21559736 563.85803979 -298.72039278 560.03787563 -297.90393066 556.1373291 C-297.72159597 554.3208595 -297.56820074 552.50132431 -297.43908691 550.68029785 C-297.36109863 549.64969238 -297.28311035 548.61908691 -297.20275879 547.55725098 C-297.04607954 545.41424143 -296.89239941 543.27101036 -296.74182129 541.12756348 C-296.39727298 536.63162817 -296.06191339 532.28621633 -294.88830566 527.92248535 C-293.7921831 523.7076331 -293.42197943 519.71308974 -293.09143066 515.3873291 C-292.02360706 503.37971527 -289.80622083 491.60987646 -287.58166504 479.77160645 C-286.90682195 476.1528333 -286.25387826 472.53073802 -285.60705566 468.90686035 C-283.66180735 458.07470218 -281.60272419 447.36142759 -278.79455566 436.71936035 C-277.87985173 433.0404853 -277.18482317 429.37057775 -276.52893066 425.6373291 C-273.30833354 407.52402001 -268.09665569 389.76691423 -262.90393066 372.1373291 C-262.58633789 371.0545166 -262.26874512 369.9717041 -261.94152832 368.8560791 C-260.91098673 365.34482372 -259.87710871 361.83457273 -258.84143066 358.3248291 C-258.52512695 357.2525708 -258.20882324 356.1803125 -257.88293457 355.07556152 C-253.54885865 340.46667914 -248.91456529 325.9661054 -244.09143066 311.5123291 C-243.83169464 310.73272827 -243.57195862 309.95312744 -243.30435181 309.14990234 C-239.29107715 297.11730395 -235.14946417 285.14062919 -230.69934082 273.26135254 C-230.16291725 271.82891391 -229.63144581 270.3946123 -229.10461426 268.95861816 C-227.77250496 265.34421197 -226.34739748 261.84581767 -224.65393066 258.3873291 C-218.12827583 244.21901546 -213.78254161 228.93399526 -208.90393066 214.1373291 C-208.24393066 214.1373291 -207.58393066 214.1373291 -206.90393066 214.1373291 C-206.80596191 213.5082666 -206.70799316 212.8792041 -206.60705566 212.2310791 C-206.45752441 211.3751416 -206.30799316 210.5192041 -206.15393066 209.6373291 C-205.94510254 208.38436035 -205.94510254 208.38436035 -205.73205566 207.1060791 C-204.6299975 203.15530457 -202.79683091 199.76058614 -200.90393066 196.1373291 C-200.29142005 194.88819327 -199.68322763 193.63692928 -199.07971191 192.38342285 C-194.50072611 182.98303434 -189.50193025 173.96843261 -183.90393066 165.1373291 C-183.45533691 164.42818359 -183.00674316 163.71903809 -182.54455566 162.98840332 C-175.78468306 152.38663884 -168.4344162 142.52025603 -160.35656738 132.89123535 C-157.61630189 129.58265261 -155.00890078 126.1690675 -152.39221191 122.7623291 C-151.9010791 122.2260791 -151.40994629 121.6898291 -150.90393066 121.1373291 C-150.24393066 121.1373291 -149.58393066 121.1373291 -148.90393066 121.1373291 C-148.70025879 120.60752441 -148.49658691 120.07771973 -148.28674316 119.53186035 C-146.30325917 116.09718326 -143.60271917 113.58423284 -140.77893066 110.8248291 C-140.18781494 110.24160889 -139.59669922 109.65838867 -138.9876709 109.05749512 C-134.76063519 104.91265016 -130.42372827 100.96052707 -125.90393066 97.1373291 C-124.93713379 96.2813916 -123.97033691 95.4254541 -122.97424316 94.5435791 C-105.07733715 78.76841654 -85.46153729 66.11520776 -64.90393066 54.1373291 C-95.14479898 65.77426089 -124.75721214 83.57897532 -148.90393066 105.1373291 C-151.79421326 107.54788155 -154.73314496 109.89859405 -157.66174316 112.2623291 C-159.8767339 114.04522359 -159.8767339 114.04522359 -161.58361816 115.8873291 C-162.90393066 117.1373291 -162.90393066 117.1373291 -164.90393066 117.1373291 C-165.89393066 119.1173291 -165.89393066 119.1173291 -166.90393066 121.1373291 C-167.56393066 121.1373291 -168.22393066 121.1373291 -168.90393066 121.1373291 C-169.23393066 122.1273291 -169.56393066 123.1173291 -169.90393066 124.1373291 C-172.34143066 126.8248291 -172.34143066 126.8248291 -174.90393066 129.1373291 C-175.56393066 129.1373291 -176.22393066 129.1373291 -176.90393066 129.1373291 C-177.13209473 129.68775879 -177.36025879 130.23818848 -177.59533691 130.80529785 C-179.28362336 133.81397549 -181.44656906 135.96563263 -183.84143066 138.4498291 C-195.15650614 150.47821356 -204.05638665 164.37305857 -212.27893066 178.6373291 C-212.62528564 179.23746826 -212.97164062 179.83760742 -213.32849121 180.45593262 C-214.77516683 183.00003627 -215.97539417 185.35171961 -216.90393066 188.1373291 C-217.56393066 188.1373291 -218.22393066 188.1373291 -218.90393066 188.1373291 C-219.13080566 189.2510791 -219.35768066 190.3648291 -219.59143066 191.5123291 C-220.40499255 194.80654108 -221.5467458 197.48553836 -223.18518066 200.4498291 C-226.65273867 207.24430906 -228.61906044 214.46448733 -230.71643066 221.7623291 C-231.1263709 223.16232286 -231.5371726 224.56206468 -231.94885254 225.96154785 C-232.94380592 229.35063423 -233.92713138 232.74295957 -234.90393066 236.1373291 C-235.23393066 236.1373291 -235.56393066 236.1373291 -235.90393066 236.1373291 C-236.62221075 182.08951491 -236.62221075 182.08951491 -230.77502441 161.33654785 C-230.04553974 158.65740906 -229.4121617 155.9919994 -228.81408691 153.28186035 C-226.39514294 142.39809528 -223.51308735 132.32207855 -218.90393066 122.1373291 C-218.60615723 121.46250488 -218.30838379 120.78768066 -218.00158691 120.09240723 C-211.50868567 105.42276104 -203.72269935 91.85186745 -193.90393066 79.1373291 C-193.26455566 78.29299316 -192.62518066 77.44865723 -191.96643066 76.57873535 C-187.18058792 70.47859867 -181.92240527 64.95127016 -176.46643066 59.4498291 C-175.7555127 58.729646 -175.04459473 58.00946289 -174.31213379 57.26745605 C-173.64246582 56.60189697 -172.97279785 55.93633789 -172.28283691 55.25061035 C-171.68028076 54.65031006 -171.07772461 54.05000977 -170.45690918 53.43151855 C-168.90393066 52.1373291 -168.90393066 52.1373291 -166.90393066 52.1373291 C-166.90393066 51.4773291 -166.90393066 50.8173291 -166.90393066 50.1373291 C-165.47375488 48.84387207 -165.47375488 48.84387207 -163.45861816 47.3795166 C-162.71853516 46.84028564 -161.97845215 46.30105469 -161.21594238 45.7454834 C-160.41172852 45.17354248 -159.60751465 44.60160156 -158.77893066 44.0123291 C-157.95795898 43.42556396 -157.1369873 42.83879883 -156.2911377 42.23425293 C-149.39562904 37.36853006 -142.37770979 33.07222747 -134.90393066 29.1373291 C-134.30467773 28.81458008 -133.7054248 28.49183105 -133.0880127 28.15930176 C-106.97222735 14.14212337 -78.17682131 6.17592522 -48.90393066 2.1373291 C-47.74006836 1.95782715 -46.57620605 1.7783252 -45.3770752 1.59338379 C-30.34078714 -0.53394082 -15.14750365 -0.09319732 0 0 Z " fill="#8CC440" transform="translate(1220.9039306640625,419.8626708984375)"/>
<path d="M0 0 C0.33 0 0.66 0 1 0 C0.96519531 1.03640625 0.93039062 2.0728125 0.89453125 3.140625 C0.86638518 4.51040042 0.83908589 5.88019341 0.8125 7.25 C0.78736328 7.93191406 0.76222656 8.61382813 0.73632812 9.31640625 C0.67372433 13.61520038 1.11312227 15.81854291 4 19 C4.6875 21.75 4.6875 21.75 5 24 C5.66 24 6.32 24 7 24 C6.40317702 30.46684143 4.87545517 36.31293197 2.9375 42.5 C2.65583984 43.4178125 2.37417969 44.335625 2.08398438 45.28125 C1.3951987 47.52272203 0.70044695 49.76215031 0 52 C-0.33 52 -0.66 52 -1 52 C-1.02485652 46.04093728 -1.04293377 40.08190525 -1.05493164 34.12280273 C-1.05993738 32.09870884 -1.06674396 30.07461852 -1.07543945 28.05053711 C-1.08767059 25.12873448 -1.09326605 22.20697996 -1.09765625 19.28515625 C-1.10281754 18.39103531 -1.10797882 17.49691437 -1.11329651 16.57569885 C-1.11378856 10.97180337 -0.71189148 5.55965076 0 0 Z " fill="#90C747" transform="translate(986,604)"/>
<path d="M0 0 C9.9 0 19.8 0 30 0 C26.19114467 3.04708426 22.44922614 5.7201788 18.3125 8.25 C17.44141602 8.79527344 17.44141602 8.79527344 16.55273438 9.3515625 C12.2465343 12 12.2465343 12 10 12 C8.64567325 10.68799596 7.31266518 9.35368596 6 8 C5.34 7.67 4.68 7.34 4 7 C4 6.34 4 5.68 4 5 C4.804375 4.87625 5.60875 4.7525 6.4375 4.625 C7.283125 4.41875 8.12875 4.2125 9 4 C9.33 3.34 9.66 2.68 10 2 C6.7 1.67 3.4 1.34 0 1 C0 0.67 0 0.34 0 0 Z " fill="#93C84D" transform="translate(1412,618)"/>
<path d="M0 0 C4.27391981 3.69111257 5.17801721 8.2289117 6.0625 13.625 C6.54864725 16.55795446 7.05784734 19.17354201 8 22 C8.33 21.01 8.66 20.02 9 19 C9.99 19 10.98 19 12 19 C12.22424141 26.36259293 11.90120099 32.87049629 10 40 C9.67 40 9.34 40 9 40 C8.80422363 39.0884314 8.80422363 39.0884314 8.60449219 38.15844727 C5.86149281 25.40782365 3.04699 12.68160644 0 0 Z " fill="#99CB57" transform="translate(928,797)"/>
<path d="M0 0 C5.54303417 1.59912493 10.38061811 4.16270838 15.4375 6.875 C16.25798828 7.30941406 17.07847656 7.74382812 17.92382812 8.19140625 C22.66574453 10.71185024 27.35218216 13.3101458 32 16 C31.34 17.32 30.68 18.64 30 20 C25.54933215 18.49977488 22.09371944 16.03620912 18.375 13.25 C12.51030259 8.94610652 6.5120442 5.26931199 0 2 C0 1.34 0 0.68 0 0 Z " fill="#F2F9EB" transform="translate(640,485)"/>
<path d="M0 0 C-1.23363281 0.74443359 -1.23363281 0.74443359 -2.4921875 1.50390625 C-3.60851563 2.18324219 -4.72484375 2.86257813 -5.875 3.5625 C-6.46418213 3.91948975 -7.05336426 4.27647949 -7.66040039 4.64428711 C-12.22398564 7.44072569 -16.49079338 10.51529143 -20.68359375 13.84765625 C-23.78396049 15.38999721 -25.71212212 14.82788292 -29 14 C-25.09240982 9.62102831 -19.62959485 7.42413715 -14.5 4.75 C-13.44167969 4.1828125 -12.38335938 3.615625 -11.29296875 3.03125 C-10.27847656 2.50015625 -9.26398438 1.9690625 -8.21875 1.421875 C-7.28998047 0.93299805 -6.36121094 0.44412109 -5.40429688 -0.05957031 C-3 -1 -3 -1 0 0 Z " fill="#EDF6E3" transform="translate(1279,721)"/>
<path d="M0 0 C3.42298577 1.14099526 4.14758766 2.00085621 6 5 C6 5.99 6 6.98 6 8 C4.25034642 8.05429959 2.50020213 8.09292823 0.75 8.125 C-0.22453125 8.14820313 -1.1990625 8.17140625 -2.203125 8.1953125 C-5.0196498 7.99862781 -6.60949036 7.44568916 -9 6 C-8.67 4.68 -8.34 3.36 -8 2 C-5.03 2.495 -5.03 2.495 -2 3 C-2 2.34 -2 1.68 -2 1 C-1.34 0.67 -0.68 0.34 0 0 Z " fill="#8AC43E" transform="translate(1090,1528)"/>
<path d="M0 0 C0.33 0 0.66 0 1 0 C1.99 3.63 2.98 7.26 4 11 C4.99 10.34 5.98 9.68 7 9 C6.01 14.94 5.02 20.88 4 27 C1.19624052 24.19624052 1.29228077 21.21444789 0.875 17.4375 C0.79008301 16.71820312 0.70516602 15.99890625 0.61767578 15.2578125 C0.04516658 10.1432434 -0.18388054 5.14865526 0 0 Z " fill="#98CA54" transform="translate(979,1045)"/>
<path d="M0 0 C10.56 0 21.12 0 32 0 C32 0.33 32 0.66 32 1 C30.21142578 1.09087891 30.21142578 1.09087891 28.38671875 1.18359375 C26.82030075 1.26801149 25.25389512 1.35265887 23.6875 1.4375 C22.90181641 1.47681641 22.11613281 1.51613281 21.30664062 1.55664062 C20.54931641 1.59853516 19.79199219 1.64042969 19.01171875 1.68359375 C18.31522217 1.72025146 17.61872559 1.75690918 16.90112305 1.79467773 C14.7783428 1.95581153 14.7783428 1.95581153 12 3 C11.67 3.99 11.34 4.98 11 6 C7.2089881 4.55049545 3.6125362 2.84827434 0 1 C0 0.67 0 0.34 0 0 Z " fill="#9DCE60" transform="translate(477,384)"/>
<path d="M0 0 C0.12375 0.639375 0.2475 1.27875 0.375 1.9375 C0.684375 2.9584375 0.684375 2.9584375 1 4 C1.66 4.33 2.32 4.66 3 5 C0.8227865 10.20112114 -1.60708214 12.68090651 -6 16 C-7.02388876 9.51537118 -3.42721347 5.16122028 0 0 Z " fill="#92C84D" transform="translate(1035,588)"/>
<path d="M0 0 C0.625 1.75 0.625 1.75 1 4 C0.68933594 4.61359375 0.37867188 5.2271875 0.05859375 5.859375 C-1.09376747 8.18961098 -1.35507761 9.92266651 -1.5625 12.5 C-1.97422783 17.40712351 -3.10405677 21.44973625 -5 26 C-5.33 26 -5.66 26 -6 26 C-5.50004088 17.55241483 -4.39501368 9.13617088 -2 1 C-1.34 0.67 -0.68 0.34 0 0 Z " fill="#9DCD5E" transform="translate(942,865)"/>
<path d="M0 0 C0.66 0.33 1.32 0.66 2 1 C1.67 1.66 1.34 2.32 1 3 C0.34 3 -0.32 3 -1 3 C-1 3.66 -1 4.32 -1 5 C-0.01 4.34 0.98 3.68 2 3 C2.66 2.67 3.32 2.34 4 2 C4.33 2.99 4.66 3.98 5 5 C2.03 7.97 -0.94 10.94 -4 14 C-4.33 13.01 -4.66 12.02 -5 11 C-4.34 10.01 -3.68 9.02 -3 8 C-3.020625 7.175 -3.04125 6.35 -3.0625 5.5 C-3 3 -3 3 -1.5 1.1875 C-1.005 0.795625 -0.51 0.40375 0 0 Z " fill="#91C649" transform="translate(1115,824)"/>
<path d="M0 0 C1.90389849 2.85584773 2.69462177 4.9311762 3.625 8.1875 C3.88539063 9.08855469 4.14578125 9.98960938 4.4140625 10.91796875 C4.60742188 11.60503906 4.80078125 12.29210938 5 13 C3.35 13 1.7 13 0 13 C-1.0402027 8.98778958 -2 5.16067938 -2 1 C-1.34 0.67 -0.68 0.34 0 0 Z " fill="#96CA51" transform="translate(1003,1344)"/>
<path d="M0 0 C-0.85714286 8.57142857 -0.85714286 8.57142857 -3 12 C-6.89830508 7.25423729 -6.89830508 7.25423729 -7 4 C-4.66754091 1.00112403 -3.88153854 0 0 0 Z " fill="#95C950" transform="translate(968,816)"/>
<path d="M0 0 C4.73789165 1.44323469 8.98858151 3.37226733 13.375 5.625 C14.01566406 5.94984375 14.65632812 6.2746875 15.31640625 6.609375 C16.87947501 7.40257407 18.44000622 8.20077031 20 9 C19.01 9.495 19.01 9.495 18 10 C18 10.66 18 11.32 18 12 C14.14308372 10.14945936 10.45576705 8.00656926 6.75 5.875 C6.1003125 5.50246094 5.450625 5.12992187 4.78125 4.74609375 C3.18693776 3.83170879 1.5933921 2.91598744 0 2 C0 1.34 0 0.68 0 0 Z " fill="#DBEEC6" transform="translate(640,485)"/>
<path d="M0 0 C2.00297351 4.00594702 2.88837973 7.65404544 3.6875 12 C3.82994141 12.7115625 3.97238281 13.423125 4.11914062 14.15625 C5.37311474 20.84411197 5.37311474 20.84411197 4 24 C3.34 24.66 2.68 25.32 2 26 C1.34 17.42 0.68 8.84 0 0 Z " fill="#A3CF66" transform="translate(961,1180)"/>
<path d="M0 0 C1.39035371 4.17106112 -0.09769194 7.18206859 -1.4375 11.1875 C-1.68048828 11.93708984 -1.92347656 12.68667969 -2.17382812 13.45898438 C-2.77465056 15.30857501 -3.38629678 17.15464327 -4 19 C-4.33 19 -4.66 19 -5 19 C-5 15.04 -5 11.08 -5 7 C-4.34 6.67 -3.68 6.34 -3 6 C-1.95191959 4.02477154 -0.9479589 2.02518491 0 0 Z " fill="#A0CE63" transform="translate(990,637)"/>
<path d="M0 0 C2.46301423 2.46301423 2.76766521 4.27360036 3.625 7.625 C3.88539063 8.62789062 4.14578125 9.63078125 4.4140625 10.6640625 C4.60742188 11.43492187 4.80078125 12.20578125 5 13 C2.69 12.67 0.38 12.34 -2 12 C-1.49832537 9.99330146 -0.99757336 7.99137195 -0.4375 6 C0.14246459 3.68994872 0.14246459 3.68994872 0 0 Z " fill="#9DCE5E" transform="translate(915,620)"/>
<path d="M0 0 C0.66 0.33 1.32 0.66 2 1 C-0.40559553 2.56184188 -2.82183864 4.09898362 -5.25 5.625 C-5.93191406 6.07101562 -6.61382813 6.51703125 -7.31640625 6.9765625 C-7.98027344 7.3890625 -8.64414063 7.8015625 -9.328125 8.2265625 C-9.9355957 8.61408691 -10.54306641 9.00161133 -11.16894531 9.40087891 C-13 10 -13 10 -15.22949219 9.11083984 C-15.81375977 8.7442627 -16.39802734 8.37768555 -17 8 C-14.21443118 6.63301613 -11.42068672 5.28365462 -8.625 3.9375 C-7.8309375 3.54755859 -7.036875 3.15761719 -6.21875 2.75585938 C-5.45820312 2.39169922 -4.69765625 2.02753906 -3.9140625 1.65234375 C-2.8614624 1.14175415 -2.8614624 1.14175415 -1.78759766 0.62084961 C-1.19769043 0.41596924 -0.6077832 0.21108887 0 0 Z " fill="#E7F4DB" transform="translate(1157,472)"/>
<path d="M0 0 C4.62 0 9.24 0 14 0 C14 0.66 14 1.32 14 2 C5.96498906 4.27571116 5.96498906 4.27571116 1.9375 3.125 C1.298125 2.75375 0.65875 2.3825 0 2 C0 1.34 0 0.68 0 0 Z " fill="#96CA52" transform="translate(1240,420)"/>
<path d="M0 0 C0.66 0 1.32 0 2 0 C0.34136495 4.32504836 -2.871041 7.09418825 -6.125 10.25 C-6.68832031 10.80429687 -7.25164062 11.35859375 -7.83203125 11.9296875 C-9.21686028 13.29104485 -10.60783204 14.64614859 -12 16 C-12.66 15.67 -13.32 15.34 -14 15 C-13.34 14.01 -12.68 13.02 -12 12 C-11.34 12 -10.68 12 -10 12 C-9.61521484 11.10667969 -9.61521484 11.10667969 -9.22265625 10.1953125 C-7.89030313 7.80303629 -6.56631395 6.57271801 -4.4375 4.875 C-1.78974334 2.79096366 -1.78974334 2.79096366 0 0 Z " fill="#E9F5DC" transform="translate(1056,537)"/>
<path d="M0 0 C0.66 0.33 1.32 0.66 2 1 C-3.61 6.61 -9.22 12.22 -15 18 C-15.66 17.67 -16.32 17.34 -17 17 C-11.33333333 11.33333333 -5.66666667 5.66666667 0 0 Z " fill="#EAF6DC" transform="translate(1233,433)"/>
<path d="M0 0 C2.5 2.3125 2.5 2.3125 5 5 C5 5.99 5 6.98 5 8 C1.37 8 -2.26 8 -6 8 C-3 6 -3 6 -1 5 C-0.34444881 2.47266765 -0.34444881 2.47266765 0 0 Z " fill="#9CCD5B" transform="translate(1091,1528)"/>
<path d="M0 0 C0.33 0 0.66 0 1 0 C1.08090971 1.62418745 1.13914995 3.24951745 1.1875 4.875 C1.22230469 5.77992188 1.25710938 6.68484375 1.29296875 7.6171875 C1.19628906 8.40351562 1.09960938 9.18984375 1 10 C0.01 10.66 -0.98 11.32 -2 12 C-2.69356423 14.32548007 -3.36149212 16.65880445 -4 19 C-4.66 19.33 -5.32 19.66 -6 20 C-4.38808348 13.14078075 -2.64031672 6.53792711 0 0 Z " fill="#A5D168" transform="translate(1004,854)"/>
<path d="M0 0 C0 0.66 0 1.32 0 2 C-1.8984375 3.5078125 -1.8984375 3.5078125 -4.375 5.125 C-5.59316406 5.93324219 -5.59316406 5.93324219 -6.8359375 6.7578125 C-9 8 -9 8 -11 8 C-10.875 5.6875 -10.875 5.6875 -10 3 C-6.33634907 0.63898051 -4.40218532 0 0 0 Z " fill="#F0F8E6" transform="translate(1142,481)"/>
<path d="M0 0 C2.37599719 3.56399578 3.15731805 7.08381174 4.125 11.1875 C4.39763672 12.31188477 4.39763672 12.31188477 4.67578125 13.45898438 C5.12251686 15.30470781 5.5619694 17.15219132 6 19 C3.14461979 17.32275431 2.1346918 16.45172581 1.171875 13.22265625 C0.96304688 11.65837891 0.96304688 11.65837891 0.75 10.0625 C0.60046875 9.02222656 0.4509375 7.98195313 0.296875 6.91015625 C0 4 0 4 0 0 Z " fill="#A4CF68" transform="translate(984,1283)"/>
<path d="M0 0 C2.9375 1.0625 2.9375 1.0625 6 3 C6.875 6.6875 6.875 6.6875 7 10 C6.01 10.33 5.02 10.66 4 11 C3.32880451 9.5437455 2.66318193 8.08492133 2 6.625 C1.62875 5.81289063 1.2575 5.00078125 0.875 4.1640625 C0 2 0 2 0 0 Z " fill="#90C649" transform="translate(912,750)"/>
<path d="M0 0 C-1.73656095 1.22756895 -3.48980377 2.43156853 -5.25 3.625 C-6.22453125 4.29789063 -7.1990625 4.97078125 -8.203125 5.6640625 C-11 7 -11 7 -13.359375 6.2109375 C-13.90078125 5.81132813 -14.4421875 5.41171875 -15 5 C-13.06891037 3.96709159 -11.129882 2.94901328 -9.1875 1.9375 C-8.10855469 1.36902344 -7.02960938 0.80054688 -5.91796875 0.21484375 C-3 -1 -3 -1 0 0 Z " fill="#D7ECBF" transform="translate(1279,721)"/>
<path d="M0 0 C0.99 0 1.98 0 3 0 C1.56036361 3.35915158 -0.12416589 5.71624938 -3 8 C-5.25 7.75 -5.25 7.75 -7 7 C-4.66666667 4.66666667 -2.33333333 2.33333333 0 0 Z " fill="#96CA52" transform="translate(1115,706)"/>
<path d="M0 0 C0.66 0.99 1.32 1.98 2 3 C1.48050781 3.44730469 0.96101563 3.89460937 0.42578125 4.35546875 C-4.35980076 8.50271977 -4.35980076 8.50271977 -8.875 12.9375 C-11 15 -11 15 -13 15 C-13 14.34 -13 13.68 -13 13 C-11.6796875 11.73828125 -11.6796875 11.73828125 -9.875 10.3125 C-6.12146177 7.21640431 -3.05088375 3.77728464 0 0 Z " fill="#E8F5DB" transform="translate(1133,596)"/>
<path d="M0 0 C3 1 3 1 4 3 C6.32156597 3.40729228 8.6568787 3.74438677 11 4 C11 4.99 11 5.98 11 7 C7.15185513 7.58305225 5.23691365 6.7002883 2.1875 4.5 C1.11635945 3.67780256 0.0508641 2.84795951 -1 2 C-0.67 1.34 -0.34 0.68 0 0 Z " fill="#94C94F" transform="translate(1029,1513)"/>
<path d="M0 0 C0.6875 1.75 0.6875 1.75 1 4 C-0.0625 6.1875 -0.0625 6.1875 -2 8 C-5.1875 8.75 -5.1875 8.75 -8 9 C-7.04270084 7.87411986 -6.08412105 6.7493285 -5.125 5.625 C-4.59132813 4.99851562 -4.05765625 4.37203125 -3.5078125 3.7265625 C-2.38567993 2.44163349 -1.20628025 1.20628025 0 0 Z " fill="#94C94F" transform="translate(1090,727)"/>
<path d="M0 0 C0.66 1.32 1.32 2.64 2 4 C1.01 4.33 0.02 4.66 -1 5 C-1.33 5.99 -1.66 6.98 -2 8 C-3 9 -3 9 -6 11 C-6.66 10.67 -7.32 10.34 -8 10 C-5.36 6.7 -2.72 3.4 0 0 Z " fill="#9FCE61" transform="translate(1070,541)"/>
<path d="M0 0 C2.64 1.98 5.28 3.96 8 6 C7.67 6.66 7.34 7.32 7 8 C4.69 7.67 2.38 7.34 0 7 C0 4.69 0 2.38 0 0 Z " fill="#93C84C" transform="translate(690,520)"/>
<path d="M0 0 C0 2.83967231 -0.40267181 5.23735711 -1 8 C-2.65 8.33 -4.3 8.66 -6 9 C-6 9.66 -6 10.32 -6 11 C-6.66 10.67 -7.32 10.34 -8 10 C-5.36 6.7 -2.72 3.4 0 0 Z " fill="#9DCB5E" transform="translate(1131,847)"/>
<path d="M0 0 C0.33 0.66 0.66 1.32 1 2 C2.98 1.34 4.96 0.68 7 0 C7 2.31 7 4.62 7 7 C3.63408134 5.55746343 1.48952921 3.66735273 -1 1 C-0.67 0.67 -0.34 0.34 0 0 Z " fill="#97CA52" transform="translate(752,552)"/>
<path d="M0 0 C0.33 1.32 0.66 2.64 1 4 C1.99 3.67 2.98 3.34 4 3 C4 4.65 4 6.3 4 8 C2.68 8.33 1.36 8.66 0 9 C-0.33 8.34 -0.66 7.68 -1 7 C-1.99 7.495 -1.99 7.495 -3 8 C-2.690625 7.236875 -2.38125 6.47375 -2.0625 5.6875 C-1.32106407 3.81210323 -0.63771783 1.91315348 0 0 Z " fill="#96C851" transform="translate(1057,959)"/>
<path d="M0 0 C2.34914492 2.34914492 2.73140357 3.95679446 3.625 7.125 C3.88539063 8.03507813 4.14578125 8.94515625 4.4140625 9.8828125 C4.70410156 10.93082031 4.70410156 10.93082031 5 12 C3.0625 11.6875 3.0625 11.6875 1 11 C-0.28317892 7.15046324 -0.06643637 4.05261865 0 0 Z " fill="#99CB54" transform="translate(882,772)"/>
<path d="M0 0 C-1.32 0.33 -2.64 0.66 -4 1 C-3.04134491 3.33075929 -3.04134491 3.33075929 0 5 C-1.19625 4.814375 -2.3925 4.62875 -3.625 4.4375 C-7.28283707 3.9688803 -10.37862166 4.18518987 -14 5 C-10.63156097 2.05261585 -4.40469071 -2.20234535 0 0 Z " fill="#A1CD64" transform="translate(1206,658)"/>
<path d="M0 0 C0.33 0 0.66 0 1 0 C2.82855428 4.59232335 3.12514462 7.97358268 2.625 12.875 C2.51414062 14.02742188 2.40328125 15.17984375 2.2890625 16.3671875 C2.19367187 17.23601562 2.09828125 18.10484375 2 19 C1.67 19 1.34 19 1 19 C0.25492456 12.62694402 -0.10349817 6.41688675 0 0 Z " fill="#A7D26D" transform="translate(979,1045)"/>
<path d="M0 0 C0.99 0.33 1.98 0.66 3 1 C2.46440184 4.85630673 1.48261705 7.02085954 -1 10 C-1.66 10.99 -2.32 11.98 -3 13 C-2.45144652 8.428721 -1.58255197 4.32564205 0 0 Z " fill="#A4D16B" transform="translate(1025,1042)"/>
<path d="M0 0 C0.33 0.99 0.66 1.98 1 3 C0.01 4.485 0.01 4.485 -1 6 C-1.66 6 -2.32 6 -3 6 C-3.66 7.65 -4.32 9.3 -5 11 C-5.33 11 -5.66 11 -6 11 C-5.4140625 4.84765625 -5.4140625 4.84765625 -5 3 C-4.34 2.67 -3.68 2.34 -3 2 C-2.67 2.66 -2.34 3.32 -2 4 C-1.34 2.68 -0.68 1.36 0 0 Z " fill="#96C952" transform="translate(1248,938)"/>
<path d="M0 0 C2 3 2 3 2 5 C1.34 5 0.68 5 0 5 C-0.33 5.99 -0.66 6.98 -1 8 C-2.32 7.34 -3.64 6.68 -5 6 C-3.35 4.02 -1.7 2.04 0 0 Z " fill="#97CA53" transform="translate(1063,755)"/>
<path d="M0 0 C0.66 0.33 1.32 0.66 2 1 C0.6302836 4.99500618 -1.25722422 7.80009492 -4 11 C-3.54177532 7.53058454 -3.10868317 4.32604951 -2 1 C-1.34 0.67 -0.68 0.34 0 0 Z " fill="#91C84B" transform="translate(1038,922)"/>
<path d="M0 0 C0.33 0 0.66 0 1 0 C0.67 2.31 0.34 4.62 0 7 C-0.99 7 -1.98 7 -3 7 C-3.33 8.65 -3.66 10.3 -4 12 C-4.66 12 -5.32 12 -6 12 C-6 11.34 -6 10.68 -6 10 C-5.34 10 -4.68 10 -4 10 C-3.896875 9.278125 -3.79375 8.55625 -3.6875 7.8125 C-2.93659472 4.74061475 -1.78158272 2.59814146 0 0 Z " fill="#A1D064" transform="translate(1026,808)"/>
<path d="M0 0 C0.33 0 0.66 0 1 0 C2.125 6.75 2.125 6.75 1 9 C0.01 9 -0.98 9 -2 9 C-2.33 10.65 -2.66 12.3 -3 14 C-4.25955231 10.22134307 -3.48087189 8.96588214 -2.0625 5.3125 C-1.68222656 4.31863281 -1.30195312 3.32476563 -0.91015625 2.30078125 C-0.60980469 1.54152344 -0.30945313 0.78226563 0 0 Z " fill="#A0D064" transform="translate(972,746)"/>
<path d="M0 0 C0 0.33 0 0.66 0 1 C-6.66071488 3.13645572 -12.10163546 2.93838047 -19 2 C-19 1.67 -19 1.34 -19 1 C-12.61773055 0.17648136 -6.43255401 -0.12086218 0 0 Z " fill="#B1D881" transform="translate(1200,420)"/>
<path d="M0 0 C1.5625 1.75 1.5625 1.75 3 4 C2.6875 6.25 2.6875 6.25 2 8 C1.34 7.67 0.68 7.34 0 7 C-0.66 7.66 -1.32 8.32 -2 9 C-2.20140476 5.37471432 -1.85776765 3.13498292 0 0 Z " fill="#9BCC59" transform="translate(1036,1426)"/>
<path d="M0 0 C2.72426311 2.35277269 3.8141763 4.62496331 5 8 C3.35 8.33 1.7 8.66 0 9 C-1.15941038 5.52176885 -0.70820884 3.54104422 0 0 Z " fill="#97C952" transform="translate(836,679)"/>
<path d="M0 0 C1.53166168 4.08443115 0.63081652 7.79455657 0 12 C-1.32 11.34 -2.64 10.68 -4 10 C-2.8905928 6.51329166 -1.73662334 3.22515763 0 0 Z " fill="#9DCD5D" transform="translate(1052,970)"/>
<path d="M0 0 C0.66 0.99 1.32 1.98 2 3 C0.68 3.99 -0.64 4.98 -2 6 C-1.67 7.32 -1.34 8.64 -1 10 C-2.65 10 -4.3 10 -6 10 C-4.6302836 6.00499382 -2.74277578 3.19990508 0 0 Z " fill="#A0CD60" transform="translate(1101,886)"/>
<path d="M0 0 C2 3 2 3 1.75 4.875 C0.90092985 7.28069876 -0.01881339 9.64515214 -1 12 C-1.33 12 -1.66 12 -2 12 C-1.85962479 10.18706911 -1.71255111 8.3746557 -1.5625 6.5625 C-1.48128906 5.55316406 -1.40007813 4.54382813 -1.31640625 3.50390625 C-1 1 -1 1 0 0 Z " fill="#96C952" transform="translate(938,879)"/>
<path d="M0 0 C0.66 0.33 1.32 0.66 2 1 C-0.97 3.64 -3.94 6.28 -7 9 C-7.99 8.67 -8.98 8.34 -10 8 C-6.7 5.36 -3.4 2.72 0 0 Z " fill="#E5F2D8" transform="translate(1176,781)"/>
<path d="M0 0 C4.75 0.75 4.75 0.75 7 3 C6.01 3.99 5.02 4.98 4 6 C2 4.6875 2 4.6875 0 3 C0 2.01 0 1.02 0 0 Z " fill="#EAF5DE" transform="translate(658,495)"/>
<path d="M0 0 C0.99 0.33 1.98 0.66 3 1 C0.69 3.31 -1.62 5.62 -4 8 C-4.66 6.68 -5.32 5.36 -6 4 C-4.68 4 -3.36 4 -2 4 C-1.34 2.68 -0.68 1.36 0 0 Z " fill="#94C74C" transform="translate(1099,846)"/>
<path d="M0 0 C0.66 0.66 1.32 1.32 2 2 C-0.52956528 5.0916909 -3.22454612 5.90931332 -7 7 C-5.12050295 3.42895561 -3.82946843 1.45255699 0 0 Z " fill="#94C94D" transform="translate(1139,840)"/>
<path d="M0 0 C2.475 0.99 2.475 0.99 5 2 C4.67 3.65 4.34 5.3 4 7 C3.34 7 2.68 7 2 7 C0.5393715 4.35261084 0 3.10551666 0 0 Z " fill="#94C94F" transform="translate(1344,724)"/>
<path d="M0 0 C0.66 0.66 1.32 1.32 2 2 C-0.2646629 5.05729491 -2.61327331 8.03716687 -5 11 C-5.66 10.67 -6.32 10.34 -7 10 C-3.535 5.05 -3.535 5.05 0 0 Z " fill="#E8F5DA" transform="translate(1151,573)"/>
<path d="M0 0 C2.64 0.66 5.28 1.32 8 2 C8 2.99 8 3.98 8 5 C8.66 5 9.32 5 10 5 C9.67 5.66 9.34 6.32 9 7 C7.4972763 6.02501855 5.99788037 5.04490611 4.5 4.0625 C3.6646875 3.51722656 2.829375 2.97195313 1.96875 2.41015625 C1.3190625 1.94480469 0.669375 1.47945312 0 1 C0 0.67 0 0.34 0 0 Z " fill="#9CCD5C" transform="translate(704,520)"/>
<path d="M0 0 C1.32 0 2.64 0 4 0 C4.36923077 4.55384615 4.36923077 4.55384615 2.5 6.8125 C2.005 7.204375 1.51 7.59625 1 8 C0.67 5.36 0.34 2.72 0 0 Z " fill="#9BCC5A" transform="translate(952,1360)"/>
<path d="M0 0 C1.95917659 0.0868748 3.91741871 0.19504512 5.875 0.3125 C7.51082031 0.39951172 7.51082031 0.39951172 9.1796875 0.48828125 C10.11039063 0.65714844 11.04109375 0.82601562 12 1 C12.66 1.99 13.32 2.98 14 4 C12.22773547 3.71715982 10.457212 3.42339502 8.6875 3.125 C7.20830078 2.88136719 7.20830078 2.88136719 5.69921875 2.6328125 C3 2 3 2 0 0 Z " fill="#A7D16B" transform="translate(834,828)"/>
<path d="M0 0 C0 1.32 0 2.64 0 4 C-5.75 2.25 -5.75 2.25 -8 0 C-4.94736336 -0.98120464 -3.05263664 -0.98120464 0 0 Z " fill="#9DCC5F" transform="translate(816,818)"/>
<path d="M0 0 C-1.13499394 3.29148243 -1.99283376 3.9959869 -5.125 5.75 C-6.548125 6.36875 -6.548125 6.36875 -8 7 C-7.67 5.68 -7.34 4.36 -7 3 C-6.01 3 -5.02 3 -4 3 C-4 2.34 -4 1.68 -4 1 C-2 0 -2 0 0 0 Z " fill="#90C84A" transform="translate(1228,745)"/>
<path d="M0 0 C2.02350324 3.03525486 2.32124018 4.19426202 2.625 7.6875 C2.69976563 8.49574219 2.77453125 9.30398438 2.8515625 10.13671875 C2.92503906 11.05904297 2.92503906 11.05904297 3 12 C1 11 1 11 0.1484375 8.71484375 C-0.10679687 7.79832031 -0.36203125 6.88179687 -0.625 5.9375 C-0.88539063 5.01839844 -1.14578125 4.09929688 -1.4140625 3.15234375 C-1.60742188 2.44207031 -1.80078125 1.73179687 -2 1 C-1.34 0.67 -0.68 0.34 0 0 Z " fill="#A0CE5F" transform="translate(931,674)"/>
<path d="M0 0 C0.66 0.99 1.32 1.98 2 3 C-0.97 5.475 -0.97 5.475 -4 8 C-4 6.02 -4 4.04 -4 2 C-3.67 2.66 -3.34 3.32 -3 4 C-2.34 4 -1.68 4 -1 4 C-0.67 2.68 -0.34 1.36 0 0 Z " fill="#97C953" transform="translate(1206,985)"/>
<path d="M0 0 C0.33 0.66 0.66 1.32 1 2 C0.22265625 3.9453125 0.22265625 3.9453125 -0.9375 6.125 C-1.31777344 6.84945312 -1.69804688 7.57390625 -2.08984375 8.3203125 C-2.39019531 8.87460937 -2.69054688 9.42890625 -3 10 C-3.66 10 -4.32 10 -5 10 C-3.84414715 6.08788267 -2.64465038 3.1254959 0 0 Z " fill="#99CB57" transform="translate(1079,920)"/>
<path d="M0 0 C-2.97 2.475 -2.97 2.475 -6 5 C-6.33 3.68 -6.66 2.36 -7 1 C-3.375 -1.125 -3.375 -1.125 0 0 Z " fill="#95C84F" transform="translate(1108,841)"/>
<path d="M0 0 C0.33 1.32 0.66 2.64 1 4 C-1.97 4 -4.94 4 -8 4 C-5.33440687 2.22293791 -2.9719385 1.12451727 0 0 Z " fill="#9CCF60" transform="translate(896,836)"/>
<path d="M0 0 C0.66 0 1.32 0 2 0 C1.01 2.97 0.02 5.94 -1 9 C-1.33 8.34 -1.66 7.68 -2 7 C-2.66 6.67 -3.32 6.34 -4 6 C-2.7260411 3.96166576 -1.38938077 1.96147874 0 0 Z " fill="#92C648" transform="translate(1318,808)"/>
<path d="M0 0 C1.98 0.66 3.96 1.32 6 2 C5.625 3.9375 5.625 3.9375 5 6 C4.01 6.495 4.01 6.495 3 7 C2.01 4.69 1.02 2.38 0 0 Z " fill="#93C84E" transform="translate(901,727)"/>
<path d="M0 0 C0.66 0 1.32 0 2 0 C2.33 0.99 2.66 1.98 3 3 C1.35 4.32 -0.3 5.64 -2 7 C-2.33 5.68 -2.66 4.36 -3 3 C-2.34 3 -1.68 3 -1 3 C-0.67 2.01 -0.34 1.02 0 0 Z " fill="#91C74B" transform="translate(1395,648)"/>
<path d="M0 0 C0 2.31 0 4.62 0 7 C-1.65 5.35 -3.3 3.7 -5 2 C-2 0 -2 0 0 0 Z " fill="#93C84F" transform="translate(1015,1497)"/>
<path d="M0 0 C0.61875 0.474375 1.2375 0.94875 1.875 1.4375 C3.90705546 3.02417441 3.90705546 3.02417441 6 4 C6 4.99 6 5.98 6 7 C5.34 7 4.68 7 4 7 C3.67 7.66 3.34 8.32 3 9 C2.01 6.03 1.02 3.06 0 0 Z " fill="#A4D168" transform="translate(975,1436)"/>
<path d="M0 0 C0.33 0 0.66 0 1 0 C1.25 3.3125 1.25 3.3125 1 7 C-0.32 7.99 -1.64 8.98 -3 10 C-2.01 6.7 -1.02 3.4 0 0 Z " fill="#A4D066" transform="translate(1034,1014)"/>
<path d="M0 0 C0.75 1.75 0.75 1.75 1 4 C-0.9375 6.25 -0.9375 6.25 -3 8 C-3.33 6.68 -3.66 5.36 -4 4 C-3.34 4 -2.68 4 -2 4 C-1.34 2.68 -0.68 1.36 0 0 Z " fill="#9CCD5B" transform="translate(1122,858)"/>
<path d="M0 0 C0.66 1.32 1.32 2.64 2 4 C0.68 4 -0.64 4 -2 4 C-2 3.34 -2 2.68 -2 2 C-2.66 1.67 -3.32 1.34 -4 1 C-2 0 -2 0 0 0 Z M-5 4 C-3.68 4.33 -2.36 4.66 -1 5 C-1.99 5.495 -1.99 5.495 -3 6 C-3.66 5.34 -4.32 4.68 -5 4 Z " fill="#92C74E" transform="translate(806,811)"/>
<path d="M0 0 C0.66 0.99 1.32 1.98 2 3 C0.35 4.65 -1.3 6.3 -3 8 C-3.66 7.67 -4.32 7.34 -5 7 C-3.35 4.69 -1.7 2.38 0 0 Z " fill="#9DCC5F" transform="translate(1053,767)"/>
<path d="M0 0 C2.31 0.33 4.62 0.66 7 1 C7.33 2.98 7.66 4.96 8 7 C6.66382648 6.02471263 5.3311249 5.04466681 4 4.0625 C3.2575 3.51722656 2.515 2.97195313 1.75 2.41015625 C1.1725 1.94480469 0.595 1.47945312 0 1 C0 0.67 0 0.34 0 0 Z " fill="#9CCC5B" transform="translate(798,593)"/>
<path d="M0 0 C0.33 0.66 0.66 1.32 1 2 C1.66 2.33 2.32 2.66 3 3 C0.525 4.485 0.525 4.485 -2 6 C-2.66 5.34 -3.32 4.68 -4 4 C-2.68 2.68 -1.36 1.36 0 0 Z " fill="#95C851" transform="translate(1050,474)"/>
<path d="M0 0 C-0.33 0.99 -0.66 1.98 -1 3 C-4.73567172 3.76411467 -7.34811918 4.07174763 -11 3 C-9.54293274 2.49632243 -8.08429904 1.99717444 -6.625 1.5 C-5.81289062 1.2215625 -5.00078125 0.943125 -4.1640625 0.65625 C-2 0 -2 0 0 0 Z " fill="#9ACC5A" transform="translate(1115,437)"/>
<path d="M0 0 C1 2 1 2 0.44140625 3.9453125 C0.15136719 4.66460938 -0.13867188 5.38390625 -0.4375 6.125 C-0.72496094 6.84945312 -1.01242187 7.57390625 -1.30859375 8.3203125 C-1.53675781 8.87460937 -1.76492188 9.42890625 -2 10 C-3.1875 8.3125 -3.1875 8.3125 -4 6 C-2.87755007 3.70165014 -1.81522119 1.81522119 0 0 Z " fill="#9FCE5F" transform="translate(999,1005)"/>
<path d="M0 0 C0.66 0.99 1.32 1.98 2 3 C1.01 4.98 0.02 6.96 -1 9 C-1.97812643 5.95694001 -2.04560527 4.0322553 -1 1 C-0.67 0.67 -0.34 0.34 0 0 Z " fill="#92C64A" transform="translate(1028,938)"/>
<path d="M0 0 C0.66 0.66 1.32 1.32 2 2 C1.67 2.99 1.34 3.98 1 5 C0.34 4.67 -0.32 4.34 -1 4 C-1 4.99 -1 5.98 -1 7 C-1.99 7.33 -2.98 7.66 -4 8 C-2.87548273 5.0280615 -1.77706209 2.66559313 0 0 Z " fill="#9FCD60" transform="translate(1086,908)"/>
<path d="M0 0 C1.1875 1.5625 1.1875 1.5625 2 4 C0.625 7.75 0.625 7.75 -1 11 C-2.60080151 6.99799622 -1.29279692 3.95443764 0 0 Z " fill="#A2D067" transform="translate(953,811)"/>
<path d="M0 0 C0 0.66 0 1.32 0 2 C0.66 2 1.32 2 2 2 C2 2.66 2 3.32 2 4 C2.66 4.33 3.32 4.66 4 5 C0.31245243 4.50168276 -1.60490662 3.89932357 -4 1 C-2 0 -2 0 0 0 Z " fill="#98CB53" transform="translate(747,779)"/>
<path d="M0 0 C1.32 1.65 2.64 3.3 4 5 C3.67 5.66 3.34 6.32 3 7 C1.02 5.68 -0.96 4.36 -3 3 C-2 1 -2 1 0 0 Z " fill="#99CC57" transform="translate(891,570)"/>
<path d="M0 0 C0.66 0.33 1.32 0.66 2 1 C-0.97 2.65 -3.94 4.3 -7 6 C-7.66 5.34 -8.32 4.68 -9 4 C-7.54618103 3.30300448 -6.08677047 2.61766134 -4.625 1.9375 C-3.40683594 1.36322266 -3.40683594 1.36322266 -2.1640625 0.77734375 C-1.44992187 0.52082031 -0.73578125 0.26429688 0 0 Z " fill="#CFE9B2" transform="translate(1157,472)"/>
<path d="M0 0 C2.72426311 2.35277269 3.8141763 4.62496331 5 8 C4.01 8 3.02 8 2 8 C2 7.01 2 6.02 2 5 C1.34 5 0.68 5 0 5 C0 3.35 0 1.7 0 0 Z " fill="#9CCC5B" transform="translate(1076,1504)"/>
<path d="M0 0 C0.66 0.33 1.32 0.66 2 1 C0.515 4.465 0.515 4.465 -1 8 C-1.33 8 -1.66 8 -2 8 C-2.125 5.125 -2.125 5.125 -2 2 C-1.34 1.34 -0.68 0.68 0 0 Z " fill="#A2CF65" transform="translate(1288,874)"/>
<path d="M0 0 C1.65 0.33 3.3 0.66 5 1 C2.53721199 3.46278801 0.29323018 3.99771255 -3 5 C-2.01 3.35 -1.02 1.7 0 0 Z " fill="#99C952" transform="translate(1062,644)"/>
<path d="M0 0 C-0.33 0.66 -0.66 1.32 -1 2 C-4.3 2 -7.6 2 -11 2 C-6.98764085 -0.6749061 -4.6342454 -1.48957888 0 0 Z " fill="#A4D069" transform="translate(1252,643)"/>
<path d="M0 0 C0.99 0.33 1.98 0.66 3 1 C3 1.66 3 2.32 3 3 C3.66 3.33 4.32 3.66 5 4 C5 4.99 5 5.98 5 7 C3.02 5.35 1.04 3.7 -1 2 C-0.67 1.34 -0.34 0.68 0 0 Z " fill="#98C955" transform="translate(809,601)"/>
<path d="M0 0 C1.65 0.33 3.3 0.66 5 1 C2 3 2 3 -1 4 C-0.67 2.68 -0.34 1.36 0 0 Z M-3 4 C-2.34 4 -1.68 4 -1 4 C-1 4.66 -1 5.32 -1 6 C-1.66 6 -2.32 6 -3 6 C-3 5.34 -3 4.68 -3 4 Z " fill="#95C851" transform="translate(715,424)"/>
</svg>
