<svg id="fdc97acf-c051-46f2-b4f9-bed4fecbb167" data-name="Layer 1" xmlns="http://www.w3.org/2000/svg" viewBox="0 0 24 24">
  <title>crop_banana</title>
  <path d="M22.73,10.32A2.78,2.78,0,0,0,20.81,8a3.77,3.77,0,0,1-1.33-1.38,1.21,1.21,0,0,1-.07-.4l-.08-.09V6.05a.08.08,0,0,1,.05,0,.8.8,0,0,1-.05-.28c0-.16-.19-.37-.49-.61a.49.49,0,0,0-.55-.1,2.08,2.08,0,0,0-.54.41,1.12,1.12,0,0,0-.12.58v0h-.22V6a1.28,1.28,0,0,1,.16-.72,1.38,1.38,0,0,1,.2-.18l-.11,0c-.2.07-.73.62-.73.79a.58.58,0,0,0,0,.1h-.25V6.3l-.1.32a2,2,0,0,1-.21,1,2.42,2.42,0,0,1-.8,1c-.4.26-2.42,1.57-3.26,2.1a13.76,13.76,0,0,1-6.58,1.67c-2.95-.05-3-.22-3.88.11s-.74.34-.74.34v.67c0,.15-.06.16,0,.27a.57.57,0,0,0,.22.25,2.79,2.79,0,0,0,1.06,1.1,13.48,13.48,0,0,0,2.88.8,1.52,1.52,0,0,1,.33.07,14.4,14.4,0,0,0-1.47.89c-.21.15-.5.17-.41.29s.27.17.27.24a.78.78,0,0,1,0,.22l0,.14s0,.34.08.41A5.77,5.77,0,0,0,5.72,19a9.25,9.25,0,0,0,4.71-.14h0l.22,0v.06c0,.11.12.22.19.3s.9,1.54,3.88,1.38a9,9,0,0,0,7.11-4.38A8.39,8.39,0,0,0,22.73,10.32Z" style="fill: #dbae31"/>
  <path d="M11.15,18.58l-.38-.29a.5.5,0,0,1,.26-.16,2.68,2.68,0,0,0,.42-.13,13.4,13.4,0,0,0,5.19-1.7,5.79,5.79,0,0,0,2.56-4.92c.08-1.4.12-2.1.13-2.41a1.81,1.81,0,0,0-.17-1.2A5.36,5.36,0,0,0,18.45,7l-.29-.27h0a1.43,1.43,0,0,1,.93.38,4.45,4.45,0,0,1,1.16,1.51c.28.66,1.95,4.05-.66,7A9.59,9.59,0,0,1,11.15,18.58Z" style="fill: #e1cb6e"/>
  <path d="M3.74,17.13c-.09-.12.2-.14.41-.29A12.06,12.06,0,0,1,5.62,16c.89-.45,1.73-.14,4.86-1a8.45,8.45,0,0,0,5-3.77c.45-.72,1-1.61,1.32-2a5.51,5.51,0,0,0,.43-1.83s-.1-.36-.19-.72c0,0,.77.3.8.62s-.07,1.6-.09,1.88.65,4.08-4.28,6.37A13.06,13.06,0,0,1,6.18,17c-.53.07-2.16.47-2.16.47H4s0-.05,0-.09S3.84,17.25,3.74,17.13Z" style="fill: #e1cb6e"/>
  <path d="M16.69,8.2a14.33,14.33,0,0,1-2.15,2.85A12.12,12.12,0,0,1,5.63,13.8c-2.76-.35-2.18-.84-4.49-.89v-.12s-.16,0,.74-.34.93-.16,3.88-.11a13.76,13.76,0,0,0,6.58-1.67c.84-.53,2.86-1.84,3.26-2.1a2.42,2.42,0,0,0,.8-1,2,2,0,0,0,.21-1S17,7.72,16.69,8.2Z" style="fill: #e1cb6e"/>
  <path d="M17.76,6.65c.48-.11.35-.44.35-.62a1.33,1.33,0,0,1,.3-.73.59.59,0,0,0-.63-.17l-.11,0c-.2.07-.73.62-.73.79a5.72,5.72,0,0,0,.14.65c.21,0,.58.07.65.09S17.75,6.67,17.76,6.65Z" style="fill: #422b1f"/>
  <path d="M4.09,17.53l0,.61s-.39-.31-.39-.44,0-.68.07-.64S4.1,17.35,4.09,17.53Z" style="fill: #2d1b11"/>
  <path d="M10.77,18.29a3.86,3.86,0,0,1,.38.29c0,.05-.11.78-.18.68s-.3-.17-.3-.37S10.58,18.43,10.77,18.29Z" style="fill: #2d1b11"/>
  <path d="M1.14,12.79a1.46,1.46,0,0,1,.11.65c0,.15,0,.38-.05.34s-.05.09-.07,0S1.14,12.79,1.14,12.79Z" style="fill: #2d1b11"/>
  <path d="M18.15,6.76l.7-.14.56-.33v0l-.08-.1c-.08-.09.05-.12.05-.12a.8.8,0,0,1-.05-.28c0-.16-.19-.37-.49-.61a.49.49,0,0,0-.55-.1,2.08,2.08,0,0,0-.54.41,1.12,1.12,0,0,0-.12.58c0,.14.24.41.36.56A1.16,1.16,0,0,0,18.15,6.76Z" style="fill: #2d1b11"/>
</svg>
