<svg id="baf2425f-01fc-49e3-8512-48042a4fcbc8" data-name="Layer 1" xmlns="http://www.w3.org/2000/svg" viewBox="0 0 24 24">
  <title>crop_maize</title>
  <path d="M12.31,2.74C9.37,2.7,9.66,16.13,9.8,19.52l5.4.05C15.24,18,16,2.78,12.31,2.74Z" style="fill: #b27216"/>
  <path d="M13.22,9.1a.42.42,0,0,0-.43-.44,5.15,5.15,0,0,0-.68,0,.44.44,0,1,0,0,.87,3.86,3.86,0,0,0,.68,0C13,9.51,13.22,9.37,13.22,9.1Z" style="fill: #dbae31"/>
  <path d="M14.17,8.68a1.37,1.37,0,0,0-.35,0,.44.44,0,0,0-.45.43c0,.26.18.4.44.44a1.29,1.29,0,0,0,.34,0,.45.45,0,0,0,.45-.43A.44.44,0,0,0,14.17,8.68Z" style="fill: #dbae31"/>
  <path d="M15.09,8.67c-.24,0-.35.17-.4.38a.33.33,0,0,0,0,.1c0,.22.15.39.38.39s.35-.16.4-.37V9.06C15.43,8.85,15.32,8.68,15.09,8.67Z" style="fill: #dbae31"/>
  <path d="M9.76,9.58c.23-.05.29-.25.28-.46A.3.3,0,0,0,10,9c-.1-.2-.25-.34-.48-.28s-.29.25-.28.47a.29.29,0,0,0,0,.1A.39.39,0,0,0,9.76,9.58Z" style="fill: #dbae31"/>
  <path d="M11.51,9.08a.44.44,0,0,0-.43-.45,2,2,0,0,0-.35,0,.44.44,0,0,0-.45.43c0,.26.18.4.44.44a1.29,1.29,0,0,0,.34,0A.45.45,0,0,0,11.51,9.08Z" style="fill: #dbae31"/>
  <path d="M11.71,8c0-.12,0,0,0,0Z" style="fill: #dbae31"/>
  <path d="M12.13,8.38h.64A.42.42,0,0,0,13.2,8a.41.41,0,0,0-.41-.41h-.65a.42.42,0,0,0-.43.43A.43.43,0,0,0,12.13,8.38Z" style="fill: #dbae31"/>
  <path d="M13.2,8c0,.11,0,0,0,0Z" style="fill: #dbae31"/>
  <path d="M14.51,8c0,.11,0,0,0,0Z" style="fill: #dbae31"/>
  <path d="M13.34,8c0-.11,0,0,0,0Z" style="fill: #dbae31"/>
  <path d="M13.77,7.56a.43.43,0,0,0-.43.43.44.44,0,0,0,.42.41h.32A.43.43,0,0,0,14.51,8a.43.43,0,0,0-.41-.41Z" style="fill: #dbae31"/>
  <path d="M14.67,8a.17.17,0,0,0,0,.1.38.38,0,0,0,.36.37c.23,0,.33-.16.38-.36V8c0-.2-.14-.37-.37-.37S14.71,7.74,14.67,8Z" style="fill: #dbae31"/>
  <path d="M9.8,8.33c.22,0,.33-.15.37-.35a.17.17,0,0,0,0-.1c0-.21-.14-.37-.36-.37s-.34.15-.38.36V8C9.47,8.17,9.57,8.33,9.8,8.33Z" style="fill: #dbae31"/>
  <path d="M11.57,7.93c0,.12,0,0,0,0Z" style="fill: #dbae31"/>
  <path d="M10.81,8.36h.33a.43.43,0,0,0,.43-.43.43.43,0,0,0-.41-.41h-.33a.42.42,0,0,0-.43.42A.43.43,0,0,0,10.81,8.36Z" style="fill: #dbae31"/>
  <path d="M10.4,7.94c0-.11,0,0,0,0Z" style="fill: #dbae31"/>
  <path d="M12.16,7.33a4.14,4.14,0,0,0,.61,0A.4.4,0,0,0,13.18,7a.4.4,0,0,0-.4-.4c-.17,0-.44,0-.61,0a.4.4,0,0,0-.41.39A.39.39,0,0,0,12.16,7.33Z" style="fill: #dbae31"/>
  <path d="M14,6.57a1.71,1.71,0,0,0-.32,0,.4.4,0,0,0-.4.39.41.41,0,0,0,.39.4H14A.41.41,0,0,0,14.42,7C14.42,6.73,14.25,6.61,14,6.57Z" style="fill: #dbae31"/>
  <path d="M14.88,6.59c-.11,0-.34.15-.31.34,0,0,0,.07,0,.09,0,.21.11.37.36.36h0c.1,0,.34-.15.33-.35,0,0,0-.06,0-.09a.39.39,0,0,0-.35-.36Z" style="fill: #dbae31"/>
  <path d="M10,6.48Z" style="fill: #dbae31"/>
  <path d="M10,7.28s0,0,0,0,.34-.16.31-.34c0,0,0-.07,0-.09,0-.2-.11-.4-.36-.36h0c-.11,0-.35.14-.33.35,0,0,0,.06,0,.09A.39.39,0,0,0,10,7.28Z" style="fill: #dbae31"/>
  <path d="M10.52,6.91a.4.4,0,0,0,.39.4,1.15,1.15,0,0,0,.32,0,.41.41,0,0,0,.4-.39.39.39,0,0,0-.39-.4,1.08,1.08,0,0,0-.31,0A.41.41,0,0,0,10.52,6.91Z" style="fill: #dbae31"/>
  <path d="M12.62,9.91a3.86,3.86,0,0,0-.68,0,.42.42,0,0,0-.45.42.43.43,0,0,0,.44.45,5.15,5.15,0,0,0,.68,0,.44.44,0,0,0,.45-.43A.43.43,0,0,0,12.62,9.91Z" style="fill: #dbae31"/>
  <path d="M10.55,10.75h.34c.26,0,.45-.16.45-.43a.44.44,0,0,0-.43-.44,1.37,1.37,0,0,0-.35,0,.44.44,0,0,0-.44.43C10.11,10.57,10.3,10.71,10.55,10.75Z" style="fill: #dbae31"/>
  <path d="M9.63,10.75c.23,0,.35-.16.39-.37a.21.21,0,0,0,0-.11.4.4,0,0,0-.38-.39c-.23,0-.35.17-.39.38a.41.41,0,0,0,0,.11C9.28,10.58,9.39,10.75,9.63,10.75Z" style="fill: #dbae31"/>
  <path d="M15.17,10.69a.39.39,0,0,0,.28-.47.3.3,0,0,0,0-.1.39.39,0,0,0-.76.19.29.29,0,0,0,0,.1C14.79,10.61,14.94,10.75,15.17,10.69Z" style="fill: #dbae31"/>
  <path d="M15.15,12.91a.41.41,0,0,0,.29-.47s0-.07,0-.1a.39.39,0,0,0-.75.2.44.44,0,0,0,0,.1A.4.4,0,0,0,15.15,12.91Z" style="fill: #dbae31"/>
  <path d="M13.69,10.74H14a.44.44,0,0,0,.44-.43c0-.27-.18-.41-.43-.45H13.7a.44.44,0,0,0-.44.43C13.25,10.56,13.44,10.7,13.69,10.74Z" style="fill: #dbae31"/>
  <path d="M12.94,13.15a3.86,3.86,0,0,0-.68,0,.43.43,0,0,0-.45.43.44.44,0,0,0,.44.44,5.15,5.15,0,0,0,.68,0c.27,0,.45-.16.45-.43S13.21,13.18,12.94,13.15Z" style="fill: #dbae31"/>
  <path d="M14.32,13.17a1.29,1.29,0,0,0-.34,0c-.26,0-.45.17-.45.43A.44.44,0,0,0,14,14a1.37,1.37,0,0,0,.35,0c.25,0,.44-.16.44-.43S14.57,13.21,14.32,13.17Z" style="fill: #dbae31"/>
  <path d="M15.24,13.16c-.23,0-.35.17-.39.38a.17.17,0,0,0,0,.1c0,.22.14.39.38.39s.35-.16.4-.38v-.1C15.59,13.34,15.48,13.16,15.24,13.16Z" style="fill: #dbae31"/>
  <path d="M9.7,13.23a.39.39,0,0,0-.28.47.44.44,0,0,0,0,.1.39.39,0,0,0,.76-.2.54.54,0,0,0,0-.1A.4.4,0,0,0,9.7,13.23Z" style="fill: #dbae31"/>
  <path d="M11.66,13.56c0-.26-.18-.4-.43-.44a1.93,1.93,0,0,0-.34,0c-.26,0-.45.17-.45.44a.44.44,0,0,0,.43.44,2,2,0,0,0,.35,0C11.47,14,11.66,13.83,11.66,13.56Z" style="fill: #dbae31"/>
  <path d="M12.08,15.25a5.15,5.15,0,0,0,.68,0,.44.44,0,1,0,0-.88,5.15,5.15,0,0,0-.68,0,.43.43,0,0,0-.45.43A.41.41,0,0,0,12.08,15.25Z" style="fill: #dbae31"/>
  <path d="M10.71,15.24h.34a.45.45,0,0,0,.45-.43.44.44,0,0,0-.43-.45h-.35a.44.44,0,0,0-.45.43C10.27,15.06,10.45,15.2,10.71,15.24Z" style="fill: #dbae31"/>
  <path d="M9.8,14.37c-.24,0-.35.17-.4.38v.1c0,.22.15.39.38.39s.36-.16.4-.38a.17.17,0,0,0,0-.1C10.14,14.55,10,14.38,9.8,14.37Z" style="fill: #dbae31"/>
  <path d="M15.11,14.33c-.23.06-.29.25-.28.47a.17.17,0,0,0,0,.1.39.39,0,0,0,.47.27c.23-.05.29-.25.28-.46a.17.17,0,0,0,0-.1C15.49,14.41,15.34,14.27,15.11,14.33Z" style="fill: #dbae31"/>
  <path d="M13.85,15.22a1.29,1.29,0,0,0,.34,0c.26,0,.45-.17.45-.43a.44.44,0,0,0-.43-.45,1.37,1.37,0,0,0-.35,0c-.25,0-.44.16-.44.43S13.6,15.18,13.85,15.22Z" style="fill: #dbae31"/>
  <path d="M12.93,15.45a5.15,5.15,0,0,0-.68,0,.44.44,0,1,0,0,.87,3.86,3.86,0,0,0,.68,0c.27,0,.45-.16.45-.43A.42.42,0,0,0,12.93,15.45Z" style="fill: #dbae31"/>
  <path d="M14.3,15.47a1.93,1.93,0,0,0-.34,0c-.25,0-.44.17-.45.44a.44.44,0,0,0,.43.44,1.38,1.38,0,0,0,.35,0,.45.45,0,0,0,.45-.43C14.74,15.65,14.56,15.51,14.3,15.47Z" style="fill: #dbae31"/>
  <path d="M15.23,15.46a.4.4,0,0,0-.4.38.17.17,0,0,0,0,.1c0,.22.15.39.38.39s.35-.16.4-.37v-.11C15.57,15.64,15.46,15.47,15.23,15.46Z" style="fill: #dbae31"/>
  <path d="M9.68,15.53c-.23.06-.29.25-.28.47a.17.17,0,0,0,0,.1.39.39,0,0,0,.47.27c.23-.05.29-.25.28-.46a.17.17,0,0,0,0-.1C10.06,15.61,9.91,15.47,9.68,15.53Z" style="fill: #dbae31"/>
  <path d="M11.21,15.42a1.29,1.29,0,0,0-.34,0,.44.44,0,1,0,0,.87,1.38,1.38,0,0,0,.35,0,.44.44,0,1,0,0-.88Z" style="fill: #dbae31"/>
  <path d="M12.76,16.7a3.86,3.86,0,0,0-.68,0,.41.41,0,0,0-.45.42c0,.27.17.42.44.45a5.12,5.12,0,0,0,.68,0,.44.44,0,0,0,.45-.43A.43.43,0,0,0,12.76,16.7Z" style="fill: #dbae31"/>
  <path d="M11.05,16.67a1.37,1.37,0,0,0-.35,0,.44.44,0,1,0,0,.88,1.93,1.93,0,0,0,.34,0,.44.44,0,1,0,0-.87Z" style="fill: #dbae31"/>
  <path d="M9.78,16.67c-.24,0-.35.17-.4.38v.1c0,.22.15.39.39.39s.35-.16.39-.37a.21.21,0,0,0,0-.11A.4.4,0,0,0,9.78,16.67Z" style="fill: #dbae31"/>
  <path d="M15.09,16.63a.41.41,0,0,0-.28.47.29.29,0,0,0,0,.1c.09.2.24.34.47.28s.29-.25.28-.47a.3.3,0,0,0,0-.1A.42.42,0,0,0,15.09,16.63Z" style="fill: #dbae31"/>
  <path d="M14.19,16.65h-.35c-.25,0-.44.16-.44.43s.18.41.43.45h.35a.44.44,0,0,0,.44-.43C14.63,16.83,14.44,16.69,14.19,16.65Z" style="fill: #dbae31"/>
  <path d="M13,11.46c0,.12,0,0,0,0Z" style="fill: #dbae31"/>
  <path d="M12.59,11.05h-.65a.43.43,0,0,0-.43.43.42.42,0,0,0,.42.41h.64a.42.42,0,0,0,0-.84Z" style="fill: #dbae31"/>
  <path d="M11.51,11.47c0-.11,0,0,0,0Z" style="fill: #dbae31"/>
  <path d="M11.37,11.44c0,.11,0,0,0,0Z" style="fill: #dbae31"/>
  <path d="M10.62,11.86h.32a.43.43,0,0,0,.43-.43A.42.42,0,0,0,11,11h-.33a.43.43,0,0,0-.43.43A.44.44,0,0,0,10.62,11.86Z" style="fill: #dbae31"/>
  <path d="M10.2,11.45c0-.11,0,0,0,0Z" style="fill: #dbae31"/>
  <path d="M9.67,11.84c.22,0,.33-.16.38-.36v-.1c0-.2-.14-.36-.37-.37s-.33.16-.37.36a.34.34,0,0,0,0,.1C9.34,11.67,9.45,11.84,9.67,11.84Z" style="fill: #dbae31"/>
  <path d="M15.11,11.92c.23,0,.34-.15.38-.35a.17.17,0,0,0,0-.1c0-.21-.14-.37-.36-.37s-.34.15-.38.36v.09C14.79,11.76,14.89,11.92,15.11,11.92Z" style="fill: #dbae31"/>
  <path d="M13.32,11.46c0-.11,0,0,0,0Z" style="fill: #dbae31"/>
  <path d="M14.48,11.45c0,.11,0,0,0,0Z" style="fill: #dbae31"/>
  <path d="M14.07,11h-.33a.42.42,0,0,0-.42.42.43.43,0,0,0,.41.42h.33a.42.42,0,0,0,.42-.43A.43.43,0,0,0,14.07,11Z" style="fill: #dbae31"/>
  <path d="M12.54,12.88A.38.38,0,0,0,13,12.5a.39.39,0,0,0-.39-.4,4.28,4.28,0,0,0-.62,0,.38.38,0,0,0-.4.39c0,.23.15.37.39.4A4.14,4.14,0,0,0,12.54,12.88Z" style="fill: #dbae31"/>
  <path d="M10.69,12.86H11c.23,0,.4-.15.4-.39s-.16-.36-.39-.4H10.7c-.23,0-.4.15-.4.39S10.46,12.82,10.69,12.86Z" style="fill: #dbae31"/>
  <path d="M9.84,12.84c.1,0,.34-.16.31-.34,0,0,0-.07,0-.09,0-.21-.11-.37-.35-.36,0,0,.06,0,0,0s-.35.14-.33.35c0,0,0,.06,0,.09a.4.4,0,0,0,.35.36Z" style="fill: #dbae31"/>
  <path d="M14,12.91c.23,0,.4-.15.4-.39s-.16-.37-.39-.4a1.61,1.61,0,0,0-.31,0c-.23,0-.4.15-.4.39a.39.39,0,0,0,.39.4A1.08,1.08,0,0,0,14,12.91Z" style="fill: #dbae31"/>
  <path d="M13.14,5.93c0,.1,0,0,0,0Z" style="fill: #dbae31"/>
  <path d="M12.2,6.29h.56a.37.37,0,1,0,0-.73h-.56a.37.37,0,0,0-.38.37A.37.37,0,0,0,12.2,6.29Z" style="fill: #dbae31"/>
  <path d="M11.83,5.93c0-.09,0,0,0,0Z" style="fill: #dbae31"/>
  <path d="M13.92,5.59h-.29a.37.37,0,0,0-.37.38.38.38,0,0,0,.36.36h.28a.37.37,0,1,0,0-.73Z" style="fill: #dbae31"/>
  <path d="M13.26,6c0-.1,0,0,0,0Z" style="fill: #dbae31"/>
  <path d="M14.28,6c0,.09,0,0,0,0Z" style="fill: #dbae31"/>
  <path d="M14.41,5.82a.53.53,0,0,0,0,.12c.09.24.23.42.42.37s.24-.27.21-.53c0,0,0-.09,0-.12-.1-.24-.24-.41-.43-.37S14.38,5.56,14.41,5.82Z" style="fill: #dbae31"/>
  <path d="M10.16,6.26c.2,0,.29-.14.33-.32,0,0,0-.06,0-.08,0-.18-.12-.32-.32-.33s-.29.14-.33.32v.08A.35.35,0,0,0,10.16,6.26Z" style="fill: #dbae31"/>
  <path d="M10.69,5.92c0-.1,0,0,0,0Z" style="fill: #dbae31"/>
  <path d="M11.35,5.55h-.29a.37.37,0,0,0,0,.74h.29a.38.38,0,0,0,.37-.37A.36.36,0,0,0,11.35,5.55Z" style="fill: #dbae31"/>
  <path d="M11.71,5.91c0,.09,0,0,0,0Z" style="fill: #dbae31"/>
  <path d="M12,5.27a5.15,5.15,0,0,0,.68,0,.43.43,0,0,0,.45-.43.42.42,0,0,0-.44-.44,5.15,5.15,0,0,0-.68,0,.44.44,0,1,0,0,.88Z" style="fill: #dbae31"/>
  <path d="M13.68,4.45a.44.44,0,0,0-.32.53.43.43,0,0,0,.52.32,1.4,1.4,0,0,0,.34-.08.43.43,0,0,0,.33-.52A.45.45,0,0,0,14,4.37,2.09,2.09,0,0,0,13.68,4.45Z" style="fill: #dbae31"/>
  <path d="M10.61,5.25H11c.25,0,.44-.16.44-.43s-.18-.4-.43-.44a1.36,1.36,0,0,0-.35,0,.44.44,0,0,0-.44.43C10.17,5.07,10.36,5.21,10.61,5.25Z" style="fill: #dbae31"/>
  <path d="M11.61,3.71c0-.11,0,0,0,0Z" style="fill: #dbae31"/>
  <path d="M13.1,3.7c0,.12,0,0,0,0Z" style="fill: #dbae31"/>
  <path d="M12,4.12h.65a.42.42,0,1,0,0-.84H12a.42.42,0,0,0,0,.84Z" style="fill: #dbae31"/>
  <path d="M13.44,3.89c0-.11,0,0,0,0Z" style="fill: #dbae31"/>
  <path d="M14.28,3.57c0,.11,0,0,0,0Z" style="fill: #dbae31"/>
  <path d="M13.44,3.89a.38.38,0,0,0,.43.28l.24-.08c.18,0,.25-.31.17-.52a.38.38,0,0,0-.43-.28l-.24.08C13.43,3.42,13.36,3.68,13.44,3.89Z" style="fill: #dbae31"/>
  <path d="M11.47,3.68c0,.11,0,0,0,0Z" style="fill: #dbae31"/>
  <path d="M10.73,3.7c0-.12,0,0,0,0Z" style="fill: #dbae31"/>
  <path d="M11,4.1h.21c.14,0,.27-.21.27-.43s-.12-.39-.26-.41a1.47,1.47,0,0,0-.21,0c-.14,0-.27.2-.27.43S10.85,4.09,11,4.1Z" style="fill: #dbae31"/>
  <path d="M12.26,3c-.09.06,0,0,0,0Z" style="fill: #dbae31"/>
  <path d="M11.82,2.43c.1-.07,0,0,0,0Z" style="fill: #dbae31"/>
  <path d="M11.76,3c.07.13.32.11.5,0s.26-.32.19-.45l-.12-.17c-.07-.13-.32-.1-.51,0s-.25.32-.18.44A1,1,0,0,0,11.76,3Z" style="fill: #dbae31"/>
  <path d="M13,3.27a2.16,2.16,0,0,0,.44,0c.17,0,.28-.13.29-.34a.33.33,0,0,0-.28-.36H13a.3.3,0,0,0-.29.34A.32.32,0,0,0,13,3.27Z" style="fill: #dbae31"/>
  <path d="M12.48,19.08s-2.24-12.81-7-6.26C8,10.71,8.78,13.71,9,14.94l.07.48h0l.49,3.21c.35,2.27,1.19,3.95,2.88,3.53,1.68.45,2.56-1.22,2.94-3.49l.54-3.2h0L16,15c.24-1.22,1.11-4.21,3.53-2.06C14.91,6.3,12.48,19.08,12.48,19.08Z" style="fill: #4a7543"/>
  <path d="M13.24,16.13a20.07,20.07,0,0,1,1.62-2c1.36-1.52,2.33-2,3.13-2a2.38,2.38,0,0,1,1.55.75C16.42,8.46,14.29,12.82,13.24,16.13Z" style="fill: #69994a"/>
  <path d="M5.5,12.82a2.38,2.38,0,0,1,1.56-.73c.8,0,1.76.46,3.1,2a18.15,18.15,0,0,1,1.58,2C10.74,12.79,8.69,8.39,5.5,12.82Z" style="fill: #69994a"/>
</svg>
