<svg id="5dc5663c-57ab-4a17-bd2a-df9483c9beee" data-name="Layer 1" xmlns="http://www.w3.org/2000/svg" viewBox="0 0 24 24">
  <title>crop_mango</title>
  <path d="M5.93,8.82,4.73,7.9a.41.41,0,0,1,.36-.47l1.4,1Z" style="fill: #361705"/>
  <path d="M6.86,6.92c-.66.74-.45,1.59-1.32,2a5.33,5.33,0,0,0-1.88,3.94c.19,1.06,2.18,6.94,9.73,5.16,2.38-.56,2,1,4.21.87s3-2,2.72-4.8-2.5-7.74-6.93-8.24S8.26,5.32,6.86,6.92Z" style="fill: #eaad42"/>
  <path d="M19,16.9c-1.83.33-4.4-2.68-8.56-4S5,11,5.54,8.93a4.38,4.38,0,0,0-1.88,3.94c0,1.92,1.28,4.24,5,5.23l.12,0a7.57,7.57,0,0,0,1,.18l.18,0,.33,0h.27A11.32,11.32,0,0,0,13.39,18a4,4,0,0,1,.94-.12c1.32,0,1.41,1,3,1h.29a2.74,2.74,0,0,0,2.61-2.33A4.26,4.26,0,0,1,19,16.9Z" style="fill: #cc812f"/>
  <path d="M15.15,7.91c-.18-.17-1.37-1-1.88-1.37a5.46,5.46,0,0,0-2-.91,15.43,15.43,0,0,0-1.67-.08,6.09,6.09,0,0,0-1.51.32,3.88,3.88,0,0,0-1.24,1c-.08.09-.14.18-.2.26a4.39,4.39,0,0,1,1.8.06c.56.21.45,0,1.81.09s1.29.31,2,.32A5.93,5.93,0,0,1,15.15,8C15.3,8.11,15.33,8.08,15.15,7.91Z" style="fill: #cc812f"/>
  <path d="M6.25,8.32s-.31-.72.09-1.15a7.81,7.81,0,0,1,2.73-.72c.77.08.58-.09,2.27-.5S13,5.91,14,5.67a7.55,7.55,0,0,1,3.63-.51c.22.07.25,0,0-.12A29.59,29.59,0,0,0,14.77,4a6.51,6.51,0,0,0-3.71-.32,7.26,7.26,0,0,0-5.23,4c-.14.32.21.92.21.92Z" style="fill: #4a7543"/>
</svg>
