<?xml version="1.0" encoding="utf-8"?>
<!-- Generator: Adobe Illustrator 22.0.1, SVG Export Plug-In . SVG Version: 6.00 Build 0)  -->
<svg version="1.1" id="f45e477c-3fc0-4b65-8f18-baddbc425720"
	 xmlns="http://www.w3.org/2000/svg" xmlns:xlink="http://www.w3.org/1999/xlink" x="0px" y="0px" viewBox="0 0 24 24"
	 style="enable-background:new 0 0 24 24;" xml:space="preserve">
<style type="text/css">
	.st0{fill:#729246;}
	.st1{fill:#D64F3C;}
	.st2{fill:#597231;}
	.st3{fill:#C11010;}
	.st4{fill:#DD7266;}
	.st5{fill:#C11E1A;}
	.st6{fill:#D39367;}
</style>
<title>crop_tomato</title>
<path class="st0" d="M18.1,19.6c-0.5-0.4-0.8-1-0.6-1s-0.2-0.7-0.5-0.9c0,0,0.5-1.7-0.1-0.9c-0.9,1-2.5,1.1-3.6,0.2
	c-0.1,0.1-0.3,0.1-0.5,0.1c-0.4,0-0.3-0.1-0.7,0.1s-0.7-0.1-0.6,0.3s0.5,0.2,0,0.5s-1.2,0-0.5,0.4s0.6,0.5,0.9,0.4s0.6-1.2,1.5-0.7
	c0.1,0.3,0.2,0.5,0.3,0.8c0.3,0.3,0.8,0.6,1,0.9s0.1,0.7,0.7,1c0.6,0.3,0.7,0.5,1,0.7s0.2,0,0.5,0s0.3-0.2,0.6,0.3s0.3,0.7,0.5,0.6
	s0.1-0.4,0.1-1.1s-0.1-1.1,0.2-1.1S18.6,20,18.1,19.6z"/>
<path class="st1" d="M17.3,10.1c-1.3-0.1-2.5,0.1-3.7,0.5c2,1.6-6.1-1.1-7.5,1.4c-0.2,0.4,8.7,5.3,8.4,5.6c0.9,0.3,1.8,0.5,2.7,0.5
	c2.7,0,4.9-1.4,5-4.3S19.9,10.2,17.3,10.1z"/>
<path class="st0" d="M23,17.6c-0.3-0.1-0.3-0.1-1-0.4c-0.5-0.1-1.6-0.3-1.9-0.3c-0.8,0.7-1.8,1-2.9,1c0.6,0.4,1.3,0.9,1.7,0.8
	s0.4-0.2,1.1,0s1,0.2,0.8-0.1s-0.3-0.2,0.2-0.4s0.8-0.4,1.2-0.4S23.3,17.6,23,17.6z"/>
<path class="st2" d="M16.8,10.5c-0.1-0.5-0.1-1,0.1-1.5c0.5-1.5,1.3-2.1,1.1-2.2s-1.6,1.9-1.5,3.7H16.8z"/>
<path class="st0" d="M17.3,10.2c0.6-0.6,0.2-1.2,0.2-1.9c-0.4,0.6-0.5,1.3-0.8,1.9c0-0.7-0.1-1.3-0.2-2C16.2,8.8,16,9.4,15.9,10
	c-0.3-0.6-0.5-1.2-0.7-1.8c-0.2,0.9,0.1,1.2,0.2,2L14.9,10l0,0c-0.2-0.2-0.4-0.3-0.7-0.4c-0.3-0.2-0.5-0.3-0.8-0.3l0,0
	c-0.5-0.1-1.1-0.1-1.6,0.1c0.6,0,1.1,0,1.7,0.1c0.6,0.3,1.2,0.7,1.8,1.1l0,0c0.4,0.2,0.8,0.4,1.2,0.4c0.6,0,1.2-0.1,1.8-0.3
	c0.7-0.3,0.9-1.1,2.4-1.4C19.6,8.7,18,10.1,17.3,10.2z"/>
<path class="st3" d="M21,11.1c-0.2-0.3-4.3-0.6-4.9-0.3c4.2,0,3.3,5.5-0.9,5.5v-0.1c-0.2,0.1-2.9,0.9-2.8,1c-2.2-5.2-4.1-5.2-10-5.6
	c-2.6,7.7,8,13.6,12.2,6.2c0.4,0.2,0.5,0.1,1,0.3c0.5,0,3.4,0.3,4.5-0.6C22.2,16,23.2,13,21,11.1z"/>
<path class="st4" d="M11.7,9.3c-3-1.7-6.6-3.1-8.6,0.5s0.5,6.9,3.6,8.6s6.6,1.4,8.4-1.9S14.7,11.1,11.7,9.3z"/>
<path class="st5" d="M11.1,10.4c-0.2,0.9-0.4,1.7-0.4,2.6c0.1,0.4,1,0.3,1.4,0.8s-2.3,2-2.8,2s-1,0.6-1.8,0.7S7.3,16,7.2,15.6
	S6,13.9,5.7,12.9s1-2.1,1.3-2.1s0.7,0.8,1,0.9s1.1-0.9,1.2-1s0.3-0.5,0.5-0.9C8.7,9.1,7.5,8.9,6.4,9c-0.9,0.2-1.6,0.8-2,1.7
	c-0.6,1.1-0.7,2.3-0.3,3.5c0.6,1.4,1.7,2.5,3.1,3.2l0,0c2.2,1.1,5,1.3,6.6-1.4C15,13.9,14.1,12.1,11.1,10.4z"/>
<path class="st6" d="M6.9,9.7C6.6,9.6,6.3,9.6,6.2,9.8s0,0.5,0.3,0.6s0.6,0.1,0.7-0.1S7.2,9.9,6.9,9.7z"/>
<path class="st6" d="M5.4,10.2c-0.3-0.1-0.6-0.1-0.7,0.1s0,0.5,0.3,0.6s0.6,0.1,0.7-0.1S5.7,10.4,5.4,10.2z"/>
<path class="st6" d="M4.9,11.3c-0.3,0-0.6,0.1-0.5,0.4s0.3,0.4,0.6,0.4s0.6-0.1,0.5-0.4C5.4,11.5,5.2,11.3,4.9,11.3z"/>
<path class="st6" d="M4.7,12.9c-0.3,0-0.6,0.1-0.5,0.4s0.3,0.4,0.6,0.4s0.6-0.1,0.5-0.4S5,12.9,4.7,12.9z"/>
<path class="st6" d="M5.6,14.3c-0.3,0-0.6,0.1-0.5,0.4s0.3,0.4,0.6,0.4s0.6-0.1,0.5-0.4S5.9,14.3,5.6,14.3z"/>
<path class="st6" d="M12.7,12.7c-0.3-0.1-0.6-0.1-0.7,0.1s0.1,0.5,0.3,0.6s0.6,0.1,0.7-0.1S13,12.9,12.7,12.7z"/>
<path class="st6" d="M13.1,14.3c-0.3-0.1-0.6-0.1-0.7,0.1s0.1,0.5,0.3,0.6s0.6,0.1,0.7-0.1S13.4,14.4,13.1,14.3z"/>
<path class="st6" d="M12.5,15.3c-0.1-0.2-0.4-0.3-0.7-0.2c-0.2,0.1-0.2,0.4,0,0.6c0.1,0.2,0.4,0.3,0.7,0.2
	C12.7,15.8,12.7,15.5,12.5,15.3z"/>
<path class="st6" d="M11.4,16.3c-0.1-0.2-0.4-0.3-0.7-0.2c-0.2,0.1-0.2,0.4,0,0.6c0.1,0.2,0.4,0.3,0.7,0.2
	C11.6,16.9,11.6,16.6,11.4,16.3z"/>
<path class="st6" d="M9.7,16.4C9.5,16.1,9.3,16,9,16.1c-0.2,0.1-0.2,0.4,0,0.6C9.1,17,9.4,17.1,9.7,17C9.9,16.9,9.9,16.6,9.7,16.4z"
	/>
<path class="st6" d="M10.2,9l-0.9,1.6c0,0-0.7,1.4-0.4,1.3s0.7-0.3,0.6-0.1s-0.2,0.1,0,0.2s0.4,0.4,0.7,0s0.7-1.3,0.8-1.5
	s0.8-1,0.8-1L10.2,9z"/>
<path class="st0" d="M10.3,8.6c0,0.2-0.1,0.4-0.1,0.5s0,0.2,0.1,0.3s0.4,0.5,0.7,0.4s0.5-0.2,0.7-0.4L12,9.3
	c-0.1-0.1-0.2-0.2-0.2-0.4c0-0.3,0-0.7,0-0.7s0.2,0-0.3-0.1S10.3,8.6,10.3,8.6z"/>
</svg>
